<svg id="svg" version="1.1" xmlns="http://www.w3.org/2000/svg" xmlns:xlink="http://www.w3.org/1999/xlink" width="400" height="400" viewBox="0, 0, 400,400"><g id="svgg"><path id="path0" d="M155.300 0.286 C 154.365 0.374,153.600 0.616,153.600 0.823 C 153.600 1.030,153.060 1.200,152.400 1.200 C 151.740 1.200,151.200 1.380,151.200 1.600 C 151.200 1.820,150.660 2.000,150.000 2.000 C 149.340 2.000,148.800 2.180,148.800 2.400 C 148.800 2.620,148.350 2.800,147.800 2.800 C 147.250 2.800,146.800 2.980,146.800 3.200 C 146.800 3.420,146.440 3.600,146.000 3.600 C 145.560 3.600,145.200 3.780,145.200 4.000 C 145.200 4.220,144.840 4.400,144.400 4.400 C 143.960 4.400,143.600 4.580,143.600 4.800 C 143.600 5.020,143.330 5.200,143.000 5.200 C 142.670 5.200,142.400 5.380,142.400 5.600 C 142.400 5.820,142.130 6.000,141.800 6.000 C 141.470 6.000,141.200 6.180,141.200 6.400 C 141.200 6.620,140.906 6.800,140.547 6.800 C 140.188 6.800,139.603 7.133,139.247 7.541 C 138.891 7.948,137.991 8.595,137.248 8.978 C 135.898 9.673,128.800 16.542,128.800 17.153 C 128.800 17.331,128.350 17.999,127.800 18.638 C 127.251 19.277,126.801 20.025,126.800 20.300 C 126.800 20.575,126.653 20.800,126.474 20.800 C 126.085 20.800,124.800 23.394,124.800 24.180 C 124.800 24.484,124.665 24.793,124.500 24.867 C 124.001 25.088,122.400 28.422,122.400 29.238 C 122.400 29.657,122.220 30.000,122.000 30.000 C 121.780 30.000,121.600 30.540,121.600 31.200 C 121.600 31.860,121.420 32.400,121.200 32.400 C 120.980 32.400,120.800 33.120,120.800 34.000 C 120.800 34.880,120.620 35.600,120.400 35.600 C 120.178 35.600,120.000 36.667,120.000 38.000 C 120.000 39.333,119.822 40.400,119.600 40.400 C 119.351 40.400,119.200 42.733,119.200 46.600 L 119.200 52.800 112.600 52.800 L 106.000 52.800 106.000 62.600 L 106.000 72.400 78.200 72.400 C 59.933 72.400,50.400 72.537,50.400 72.800 C 50.400 73.033,49.067 73.200,47.200 73.200 C 45.333 73.200,44.000 73.367,44.000 73.600 C 44.000 73.820,43.190 74.000,42.200 74.000 C 41.210 74.000,40.400 74.180,40.400 74.400 C 40.400 74.620,39.808 74.800,39.085 74.800 C 37.818 74.800,33.879 75.988,33.332 76.535 C 33.186 76.681,32.737 76.800,32.333 76.800 C 31.930 76.800,31.600 76.980,31.600 77.200 C 31.600 77.420,31.335 77.600,31.011 77.600 C 30.687 77.600,29.652 78.058,28.711 78.618 C 27.770 79.177,26.685 79.738,26.300 79.864 C 25.915 79.990,25.600 80.252,25.600 80.447 C 25.600 80.641,25.375 80.800,25.100 80.800 C 24.825 80.801,24.077 81.251,23.438 81.800 C 22.799 82.350,22.130 82.800,21.951 82.800 C 21.773 82.800,20.997 83.430,20.227 84.200 C 19.457 84.970,18.654 85.600,18.444 85.600 C 17.317 85.600,9.284 94.773,8.549 96.900 C 8.416 97.285,8.148 97.600,7.953 97.600 C 7.759 97.600,7.600 97.870,7.600 98.200 C 7.600 98.530,7.420 98.800,7.200 98.800 C 6.980 98.800,6.800 99.160,6.800 99.600 C 6.800 100.040,6.620 100.400,6.400 100.400 C 6.180 100.400,6.000 100.760,6.000 101.200 C 6.000 101.640,5.820 102.000,5.600 102.000 C 5.380 102.000,5.200 102.360,5.200 102.800 C 5.200 103.240,5.020 103.600,4.800 103.600 C 4.580 103.600,4.400 103.960,4.400 104.400 C 4.400 104.840,4.220 105.200,4.000 105.200 C 3.780 105.200,3.600 105.560,3.600 106.000 C 3.600 106.440,3.420 106.800,3.200 106.800 C 2.980 106.800,2.800 107.239,2.800 107.776 C 2.800 108.313,2.620 108.864,2.400 109.000 C 2.180 109.136,2.000 109.687,2.000 110.224 C 2.000 110.761,1.820 111.200,1.600 111.200 C 1.380 111.200,1.200 111.794,1.200 112.520 C 1.200 113.246,0.975 114.065,0.700 114.340 C 0.183 114.857,-0.310 194.286,0.191 196.300 C 0.361 196.982,0.704 197.200,1.608 197.200 C 2.263 197.200,2.800 197.380,2.800 197.600 C 2.800 197.820,3.263 198.000,3.829 198.000 C 6.162 198.000,6.000 191.069,6.000 290.948 C 6.000 351.720,6.135 382.836,6.400 383.000 C 6.620 383.136,6.800 383.867,6.800 384.624 C 6.800 385.381,6.980 386.000,7.200 386.000 C 7.420 386.000,7.600 386.450,7.600 387.000 C 7.600 387.550,7.780 388.000,8.000 388.000 C 8.220 388.000,8.400 388.276,8.400 388.614 C 8.400 389.838,12.848 395.600,13.793 395.600 C 13.965 395.600,14.397 395.916,14.753 396.303 C 15.109 396.689,15.895 397.260,16.500 397.570 C 17.105 397.881,17.600 398.285,17.600 398.468 C 17.600 398.650,18.014 398.800,18.520 398.800 C 19.026 398.800,19.665 399.025,19.940 399.300 C 20.717 400.077,378.590 400.030,380.239 399.253 C 383.344 397.791,384.479 397.121,385.243 396.300 C 385.601 395.915,386.057 395.600,386.256 395.600 C 386.455 395.600,387.193 394.925,387.895 394.100 C 388.597 393.275,389.637 392.060,390.204 391.400 C 390.772 390.740,391.341 389.705,391.468 389.100 C 391.596 388.495,391.858 388.000,392.050 388.000 C 392.243 388.000,392.400 387.550,392.400 387.000 C 392.400 386.450,392.580 386.000,392.800 386.000 C 393.020 386.000,393.200 385.381,393.200 384.624 C 393.200 383.867,393.380 383.136,393.600 383.000 C 393.865 382.836,394.000 351.720,394.000 290.948 C 394.000 191.069,393.838 198.000,396.171 198.000 C 396.737 198.000,397.200 197.820,397.200 197.600 C 397.200 197.380,397.737 197.200,398.392 197.200 C 399.296 197.200,399.639 196.982,399.809 196.300 C 400.310 194.286,399.817 114.857,399.300 114.340 C 399.025 114.065,398.800 113.246,398.800 112.520 C 398.800 111.794,398.620 111.200,398.400 111.200 C 398.180 111.200,398.000 110.761,398.000 110.224 C 398.000 109.687,397.820 109.136,397.600 109.000 C 397.380 108.864,397.200 108.313,397.200 107.776 C 397.200 107.239,397.020 106.800,396.800 106.800 C 396.580 106.800,396.400 106.440,396.400 106.000 C 396.400 105.560,396.220 105.200,396.000 105.200 C 395.780 105.200,395.600 104.966,395.600 104.680 C 395.600 103.944,394.659 102.007,394.300 102.003 C 394.135 102.001,394.000 101.640,394.000 101.200 C 394.000 100.760,393.820 100.400,393.600 100.400 C 393.380 100.400,393.200 100.040,393.200 99.600 C 393.200 99.160,393.020 98.800,392.800 98.800 C 392.580 98.800,392.400 98.530,392.400 98.200 C 392.400 97.870,392.220 97.600,392.000 97.600 C 391.780 97.600,391.600 97.428,391.600 97.218 C 391.600 95.895,382.712 85.600,381.570 85.600 C 381.367 85.600,380.459 84.880,379.552 84.000 C 378.645 83.120,377.738 82.400,377.535 82.400 C 377.332 82.400,376.819 82.076,376.393 81.679 C 375.968 81.283,374.940 80.591,374.110 80.141 C 373.279 79.691,371.920 78.935,371.088 78.462 C 370.256 77.988,369.311 77.600,368.988 77.600 C 368.665 77.600,368.400 77.420,368.400 77.200 C 368.400 76.980,368.076 76.800,367.680 76.800 C 367.284 76.800,366.789 76.636,366.580 76.436 C 366.033 75.912,362.054 74.800,360.727 74.800 C 360.107 74.800,359.600 74.620,359.600 74.400 C 359.600 74.180,358.790 74.000,357.800 74.000 C 356.810 74.000,356.000 73.820,356.000 73.600 C 356.000 73.367,354.667 73.200,352.800 73.200 C 350.933 73.200,349.600 73.033,349.600 72.800 C 349.600 72.537,340.067 72.400,321.800 72.400 L 294.000 72.400 294.000 62.600 L 294.000 52.800 287.400 52.800 L 280.800 52.800 280.800 46.600 C 280.800 42.733,280.649 40.400,280.400 40.400 C 280.178 40.400,280.000 39.333,280.000 38.000 C 280.000 36.667,279.822 35.600,279.600 35.600 C 279.380 35.600,279.200 34.880,279.200 34.000 C 279.200 33.120,279.020 32.400,278.800 32.400 C 278.580 32.400,278.400 31.860,278.400 31.200 C 278.400 30.540,278.220 30.000,278.000 30.000 C 277.780 30.000,277.600 29.657,277.600 29.238 C 277.600 28.422,275.999 25.088,275.500 24.867 C 275.335 24.793,275.200 24.484,275.200 24.180 C 275.200 23.394,273.915 20.800,273.526 20.800 C 273.347 20.800,273.200 20.575,273.200 20.300 C 273.199 20.025,272.749 19.277,272.200 18.638 C 271.650 17.999,271.200 17.331,271.200 17.153 C 271.200 16.542,264.102 9.673,262.752 8.978 C 262.009 8.595,261.109 7.948,260.753 7.541 C 260.397 7.133,259.812 6.800,259.453 6.800 C 259.094 6.800,258.800 6.620,258.800 6.400 C 258.800 6.180,258.530 6.000,258.200 6.000 C 257.870 6.000,257.600 5.820,257.600 5.600 C 257.600 5.380,257.330 5.200,257.000 5.200 C 256.670 5.200,256.399 5.065,256.397 4.900 C 256.393 4.541,254.456 3.600,253.720 3.600 C 253.434 3.600,253.200 3.420,253.200 3.200 C 253.200 2.980,252.750 2.800,252.200 2.800 C 251.650 2.800,251.200 2.620,251.200 2.400 C 251.200 2.180,250.660 2.000,250.000 2.000 C 249.340 2.000,248.800 1.820,248.800 1.600 C 248.800 1.380,248.275 1.200,247.633 1.200 C 246.992 1.200,246.392 0.975,246.300 0.700 C 246.141 0.222,160.145 -0.169,155.300 0.286 M240.400 14.800 C 240.400 15.020,241.019 15.200,241.776 15.200 C 242.533 15.200,243.264 15.380,243.400 15.600 C 243.536 15.820,244.087 16.000,244.624 16.000 C 245.161 16.000,245.600 16.180,245.600 16.400 C 245.600 16.620,245.960 16.800,246.400 16.800 C 246.840 16.800,247.200 16.980,247.200 17.200 C 247.200 17.420,247.560 17.600,248.000 17.600 C 248.440 17.600,248.800 17.780,248.800 18.000 C 248.800 18.220,249.120 18.400,249.512 18.400 C 249.903 18.400,250.483 18.760,250.800 19.200 C 251.117 19.640,251.600 20.000,251.873 20.000 C 252.885 20.000,258.909 25.944,260.006 28.025 C 260.288 28.561,260.629 29.090,260.762 29.200 C 261.208 29.567,263.600 34.504,263.600 35.056 C 263.600 35.355,263.780 35.600,264.000 35.600 C 264.220 35.600,264.400 36.230,264.400 37.000 C 264.400 37.770,264.580 38.400,264.800 38.400 C 265.020 38.400,265.200 39.300,265.200 40.400 C 265.200 41.500,265.380 42.400,265.600 42.400 C 265.846 42.400,266.000 44.400,266.000 47.600 L 266.000 52.800 260.200 52.800 L 254.400 52.800 254.400 46.624 C 254.400 42.937,254.239 40.348,254.000 40.200 C 253.780 40.064,253.600 39.511,253.600 38.970 C 253.600 37.704,252.696 34.800,252.303 34.800 C 252.136 34.800,252.000 34.480,252.000 34.088 C 252.000 33.697,251.640 33.117,251.200 32.800 C 250.760 32.483,250.400 32.056,250.400 31.852 C 250.400 31.492,248.537 29.617,246.971 28.400 C 246.204 27.805,243.633 26.517,241.481 25.651 C 238.606 24.493,228.747 25.573,227.020 27.234 C 226.811 27.435,226.226 27.600,225.720 27.600 C 225.214 27.600,224.800 27.780,224.800 28.000 C 224.800 28.220,224.260 28.400,223.600 28.400 C 222.940 28.400,222.400 28.580,222.400 28.800 C 222.400 29.020,221.781 29.200,221.024 29.200 C 220.267 29.200,219.536 29.380,219.400 29.600 C 219.264 29.820,218.544 30.000,217.800 30.000 C 217.056 30.000,216.336 30.180,216.200 30.400 C 216.064 30.620,215.164 30.800,214.200 30.800 C 213.236 30.800,212.336 30.980,212.200 31.200 C 212.064 31.420,210.714 31.600,209.200 31.600 C 207.686 31.600,206.336 31.780,206.200 32.000 C 206.053 32.238,203.537 32.400,200.000 32.400 C 196.463 32.400,193.947 32.238,193.800 32.000 C 193.664 31.780,192.314 31.600,190.800 31.600 C 189.286 31.600,187.936 31.420,187.800 31.200 C 187.664 30.980,186.764 30.800,185.800 30.800 C 184.836 30.800,183.936 30.620,183.800 30.400 C 183.664 30.180,182.944 30.000,182.200 30.000 C 181.456 30.000,180.736 29.820,180.600 29.600 C 180.464 29.380,179.733 29.200,178.976 29.200 C 178.219 29.200,177.600 29.020,177.600 28.800 C 177.600 28.580,177.060 28.400,176.400 28.400 C 175.740 28.400,175.200 28.220,175.200 28.000 C 175.200 27.780,174.786 27.600,174.280 27.600 C 173.774 27.600,173.189 27.435,172.980 27.234 C 171.253 25.573,161.394 24.493,158.519 25.651 C 155.856 26.723,153.754 27.836,153.153 28.493 C 152.797 28.882,152.336 29.200,152.128 29.200 C 151.639 29.200,149.600 31.324,149.600 31.834 C 149.600 32.048,149.240 32.483,148.800 32.800 C 148.360 33.117,148.000 33.697,148.000 34.088 C 148.000 34.480,147.859 34.800,147.687 34.800 C 147.515 34.800,147.148 35.655,146.871 36.700 C 146.595 37.745,146.195 39.153,145.984 39.828 C 145.773 40.504,145.600 43.699,145.600 46.928 L 145.600 52.800 139.800 52.800 L 134.000 52.800 134.000 47.600 C 134.000 44.400,134.154 42.400,134.400 42.400 C 134.620 42.400,134.800 41.500,134.800 40.400 C 134.800 39.300,134.980 38.400,135.200 38.400 C 135.420 38.400,135.600 37.770,135.600 37.000 C 135.600 36.230,135.780 35.600,136.000 35.600 C 136.220 35.600,136.400 35.355,136.400 35.056 C 136.400 34.504,138.792 29.567,139.238 29.200 C 139.371 29.090,139.712 28.561,139.994 28.025 C 141.091 25.944,147.115 20.000,148.127 20.000 C 148.400 20.000,148.883 19.640,149.200 19.200 C 149.517 18.760,150.097 18.400,150.488 18.400 C 150.880 18.400,151.200 18.220,151.200 18.000 C 151.200 17.780,151.560 17.600,152.000 17.600 C 152.440 17.600,152.800 17.420,152.800 17.200 C 152.800 16.980,153.160 16.800,153.600 16.800 C 154.040 16.800,154.400 16.620,154.400 16.400 C 154.400 16.180,154.839 16.000,155.376 16.000 C 155.913 16.000,156.464 15.820,156.600 15.600 C 156.736 15.380,157.467 15.200,158.224 15.200 C 158.981 15.200,159.600 15.020,159.600 14.800 C 159.600 14.536,173.333 14.400,200.000 14.400 C 226.667 14.400,240.400 14.536,240.400 14.800 M167.700 41.265 C 168.965 41.544,170.000 41.913,170.000 42.086 C 170.000 42.259,170.540 42.400,171.200 42.400 C 171.860 42.400,172.400 42.580,172.400 42.800 C 172.400 43.020,172.940 43.200,173.600 43.200 C 174.260 43.200,174.800 43.380,174.800 43.600 C 174.800 43.820,175.430 44.000,176.200 44.000 C 176.970 44.000,177.600 44.180,177.600 44.400 C 177.600 44.620,178.320 44.800,179.200 44.800 C 180.080 44.800,180.800 44.980,180.800 45.200 C 180.800 45.422,181.867 45.600,183.200 45.600 C 184.533 45.600,185.600 45.778,185.600 46.000 C 185.600 46.233,186.933 46.400,188.800 46.400 C 190.667 46.400,192.000 46.567,192.000 46.800 C 192.000 47.053,194.933 47.200,200.000 47.200 C 205.067 47.200,208.000 47.053,208.000 46.800 C 208.000 46.567,209.333 46.400,211.200 46.400 C 213.067 46.400,214.400 46.233,214.400 46.000 C 214.400 45.778,215.467 45.600,216.800 45.600 C 218.133 45.600,219.200 45.422,219.200 45.200 C 219.200 44.980,219.920 44.800,220.800 44.800 C 221.680 44.800,222.400 44.620,222.400 44.400 C 222.400 44.180,223.030 44.000,223.800 44.000 C 224.570 44.000,225.200 43.820,225.200 43.600 C 225.200 43.380,225.740 43.200,226.400 43.200 C 227.060 43.200,227.600 43.020,227.600 42.800 C 227.600 42.580,228.140 42.400,228.800 42.400 C 229.460 42.400,230.000 42.259,230.000 42.086 C 230.000 41.779,233.134 40.983,236.088 40.541 C 237.571 40.319,238.800 40.967,238.800 41.971 C 238.800 42.207,238.980 42.400,239.200 42.400 C 239.446 42.400,239.600 44.400,239.600 47.600 L 239.600 52.800 232.800 52.800 L 226.000 52.800 226.000 62.600 L 226.000 72.400 200.000 72.400 L 174.000 72.400 174.000 62.600 L 174.000 52.800 167.200 52.800 L 160.400 52.800 160.400 47.600 C 160.400 44.400,160.554 42.400,160.800 42.400 C 161.020 42.400,161.200 42.212,161.200 41.983 C 161.200 40.362,162.804 40.185,167.700 41.265 M158.800 70.000 L 158.800 72.400 139.800 72.400 L 120.800 72.400 120.800 70.000 L 120.800 67.600 139.800 67.600 L 158.800 67.600 158.800 70.000 M279.200 70.000 L 279.200 72.400 260.200 72.400 L 241.200 72.400 241.200 70.000 L 241.200 67.600 260.200 67.600 L 279.200 67.600 279.200 70.000 M166.000 126.600 L 166.000 166.000 155.800 166.000 L 145.600 166.000 145.600 191.800 L 145.600 217.600 142.224 217.600 C 140.367 217.600,138.736 217.420,138.600 217.200 C 138.464 216.980,136.833 216.800,134.976 216.800 C 132.992 216.800,131.600 216.635,131.600 216.400 C 131.600 216.169,130.341 216.000,128.624 216.000 C 126.987 216.000,125.536 215.820,125.400 215.600 C 125.264 215.380,124.004 215.200,122.600 215.200 C 121.196 215.200,119.936 215.020,119.800 214.800 C 119.664 214.580,118.609 214.400,117.456 214.400 C 116.303 214.400,115.189 214.236,114.980 214.035 C 114.771 213.835,113.610 213.570,112.400 213.448 C 107.886 212.993,106.190 212.713,105.820 212.361 C 105.611 212.163,104.702 212.000,103.800 212.000 C 102.898 212.000,101.989 211.837,101.780 211.639 C 101.571 211.440,100.590 211.181,99.600 211.062 C 97.488 210.810,94.526 210.236,92.000 209.590 C 91.010 209.337,88.805 208.933,87.100 208.693 C 85.395 208.453,84.000 208.109,84.000 207.928 C 84.000 207.748,83.280 207.600,82.400 207.600 C 81.520 207.600,80.800 207.420,80.800 207.200 C 80.800 206.980,80.080 206.800,79.200 206.800 C 78.320 206.800,77.600 206.620,77.600 206.400 C 77.600 206.180,76.981 206.000,76.224 206.000 C 75.467 206.000,74.736 205.820,74.600 205.600 C 74.464 205.380,73.823 205.200,73.176 205.200 C 72.529 205.200,72.000 205.020,72.000 204.800 C 72.000 204.580,71.370 204.400,70.600 204.400 C 69.830 204.400,69.200 204.220,69.200 204.000 C 69.200 203.780,68.660 203.600,68.000 203.600 C 67.340 203.600,66.800 203.420,66.800 203.200 C 66.800 202.980,66.080 202.800,65.200 202.800 C 64.320 202.800,63.600 202.620,63.600 202.400 C 63.600 202.180,63.060 202.000,62.400 202.000 C 61.740 202.000,61.200 201.820,61.200 201.600 C 61.200 201.380,60.660 201.200,60.000 201.200 C 59.340 201.200,58.800 201.020,58.800 200.800 C 58.800 200.580,58.361 200.400,57.824 200.400 C 57.287 200.400,56.736 200.220,56.600 200.000 C 56.464 199.780,55.924 199.600,55.400 199.600 C 54.876 199.600,54.336 199.420,54.200 199.200 C 54.064 198.980,53.524 198.800,53.000 198.800 C 52.476 198.800,51.936 198.620,51.800 198.400 C 51.664 198.180,51.124 198.000,50.600 198.000 C 50.076 198.000,49.536 197.820,49.400 197.600 C 49.264 197.380,48.713 197.200,48.176 197.200 C 47.639 197.200,47.200 197.020,47.200 196.800 C 47.200 196.580,46.660 196.400,46.000 196.400 C 45.340 196.400,44.800 196.220,44.800 196.000 C 44.800 195.780,44.260 195.600,43.600 195.600 C 42.940 195.600,42.400 195.420,42.400 195.200 C 42.400 194.980,41.961 194.800,41.424 194.800 C 40.887 194.800,40.336 194.620,40.200 194.400 C 40.064 194.180,39.524 194.000,39.000 194.000 C 38.476 194.000,37.936 193.820,37.800 193.600 C 37.664 193.380,37.124 193.200,36.600 193.200 C 36.076 193.200,35.536 193.020,35.400 192.800 C 35.264 192.580,34.758 192.399,34.276 192.398 C 33.794 192.396,32.884 192.126,32.254 191.798 C 31.624 191.469,30.679 191.200,30.154 191.200 C 29.629 191.200,29.200 191.020,29.200 190.800 C 29.200 190.580,28.660 190.400,28.000 190.400 C 27.340 190.400,26.800 190.220,26.800 190.000 C 26.800 189.780,26.260 189.600,25.600 189.600 C 24.940 189.600,24.400 189.420,24.400 189.200 C 24.400 188.980,23.950 188.800,23.400 188.800 C 22.850 188.800,22.400 188.620,22.400 188.400 C 22.400 188.180,21.860 188.000,21.200 188.000 C 20.540 188.000,20.000 187.820,20.000 187.600 C 20.000 187.380,19.460 187.200,18.800 187.200 C 18.140 187.200,17.600 187.020,17.600 186.800 C 17.600 186.580,17.137 186.400,16.571 186.400 C 14.294 186.400,14.400 188.023,14.400 153.052 C 14.400 132.014,14.539 120.761,14.800 120.600 C 15.020 120.464,15.200 119.744,15.200 119.000 C 15.200 118.256,15.380 117.536,15.600 117.400 C 15.820 117.264,16.000 116.634,16.000 116.000 C 16.000 115.366,16.180 114.736,16.400 114.600 C 16.620 114.464,16.800 114.003,16.800 113.576 C 16.800 113.149,16.980 112.800,17.200 112.800 C 17.420 112.800,17.600 112.451,17.600 112.024 C 17.600 111.597,17.780 111.136,18.000 111.000 C 18.220 110.864,18.400 110.437,18.400 110.052 C 18.400 109.666,18.715 109.002,19.100 108.575 C 19.485 108.149,20.069 107.260,20.397 106.600 C 20.726 105.940,21.283 105.130,21.634 104.800 C 21.986 104.470,22.504 103.767,22.785 103.238 C 23.065 102.708,23.634 101.898,24.048 101.438 C 26.907 98.260,28.814 96.400,29.214 96.400 C 29.470 96.400,30.183 95.860,30.800 95.200 C 31.417 94.540,32.209 94.000,32.560 94.000 C 32.912 94.000,33.200 93.820,33.200 93.600 C 33.200 93.380,33.520 93.200,33.912 93.200 C 34.303 93.200,34.883 92.840,35.200 92.400 C 35.517 91.960,36.052 91.599,36.388 91.598 C 36.725 91.596,37.516 91.326,38.146 90.998 C 38.776 90.669,39.620 90.400,40.022 90.400 C 40.424 90.400,40.864 90.220,41.000 90.000 C 41.136 89.780,41.687 89.600,42.224 89.600 C 42.761 89.600,43.200 89.420,43.200 89.200 C 43.200 88.980,43.920 88.800,44.800 88.800 C 45.680 88.800,46.400 88.620,46.400 88.400 C 46.400 88.168,47.704 87.997,49.500 87.994 C 51.205 87.991,52.870 87.813,53.200 87.600 C 53.580 87.354,74.372 87.210,109.900 87.206 L 166.000 87.200 166.000 126.600 M219.200 126.600 L 219.200 166.000 200.000 166.000 L 180.800 166.000 180.800 126.600 L 180.800 87.200 200.000 87.200 L 219.200 87.200 219.200 126.600 M350.100 87.797 C 352.025 87.941,353.600 88.226,353.600 88.429 C 353.600 88.633,354.320 88.800,355.200 88.800 C 356.080 88.800,356.800 88.980,356.800 89.200 C 356.800 89.420,357.340 89.600,358.000 89.600 C 358.660 89.600,359.200 89.780,359.200 90.000 C 359.200 90.220,359.639 90.400,360.176 90.400 C 360.713 90.400,361.255 90.566,361.381 90.769 C 361.506 90.972,362.177 91.263,362.871 91.416 C 363.565 91.568,364.497 92.032,364.942 92.446 C 365.387 92.861,365.987 93.200,366.275 93.200 C 366.564 93.200,366.800 93.380,366.800 93.600 C 366.800 93.820,367.088 94.000,367.440 94.000 C 367.791 94.000,368.583 94.540,369.200 95.200 C 369.817 95.860,370.530 96.400,370.786 96.400 C 371.482 96.400,375.796 100.952,377.272 103.244 C 377.642 103.818,378.182 104.538,378.472 104.844 C 378.763 105.150,379.270 105.940,379.600 106.600 C 379.930 107.260,380.515 108.149,380.900 108.575 C 381.285 109.002,381.600 109.666,381.600 110.052 C 381.600 110.437,381.780 110.864,382.000 111.000 C 382.220 111.136,382.400 111.597,382.400 112.024 C 382.400 112.451,382.580 112.800,382.800 112.800 C 383.020 112.800,383.200 113.149,383.200 113.576 C 383.200 114.003,383.380 114.464,383.600 114.600 C 383.820 114.736,384.000 115.366,384.000 116.000 C 384.000 116.634,384.180 117.264,384.400 117.400 C 384.620 117.536,384.800 118.256,384.800 119.000 C 384.800 119.744,384.980 120.464,385.200 120.600 C 385.461 120.761,385.600 132.014,385.600 153.052 C 385.600 188.023,385.706 186.400,383.429 186.400 C 382.863 186.400,382.400 186.580,382.400 186.800 C 382.400 187.020,381.860 187.200,381.200 187.200 C 380.540 187.200,380.000 187.380,380.000 187.600 C 380.000 187.820,379.460 188.000,378.800 188.000 C 378.140 188.000,377.600 188.180,377.600 188.400 C 377.600 188.620,377.150 188.800,376.600 188.800 C 376.050 188.800,375.600 188.980,375.600 189.200 C 375.600 189.420,375.060 189.600,374.400 189.600 C 373.740 189.600,373.200 189.780,373.200 190.000 C 373.200 190.220,372.838 190.400,372.395 190.400 C 371.952 190.400,371.277 190.562,370.895 190.760 C 370.513 190.958,369.120 191.431,367.800 191.810 C 366.480 192.189,365.087 192.657,364.705 192.850 C 364.323 193.042,363.659 193.200,363.229 193.200 C 362.799 193.200,362.336 193.380,362.200 193.600 C 362.064 193.820,361.524 194.000,361.000 194.000 C 360.476 194.000,359.936 194.180,359.800 194.400 C 359.664 194.620,359.113 194.800,358.576 194.800 C 358.039 194.800,357.600 194.980,357.600 195.200 C 357.600 195.420,357.060 195.600,356.400 195.600 C 355.740 195.600,355.200 195.780,355.200 196.000 C 355.200 196.220,354.660 196.400,354.000 196.400 C 353.340 196.400,352.800 196.580,352.800 196.800 C 352.800 197.020,352.361 197.200,351.824 197.200 C 351.287 197.200,350.736 197.380,350.600 197.600 C 350.464 197.820,349.924 198.000,349.400 198.000 C 348.876 198.000,348.336 198.180,348.200 198.400 C 348.064 198.620,347.524 198.800,347.000 198.800 C 346.476 198.800,345.936 198.980,345.800 199.200 C 345.664 199.420,345.124 199.600,344.600 199.600 C 344.076 199.600,343.536 199.780,343.400 200.000 C 343.264 200.220,342.713 200.400,342.176 200.400 C 341.639 200.400,341.200 200.580,341.200 200.800 C 341.200 201.020,340.660 201.200,340.000 201.200 C 339.340 201.200,338.800 201.380,338.800 201.600 C 338.800 201.820,338.080 202.000,337.200 202.000 C 336.320 202.000,335.600 202.180,335.600 202.400 C 335.600 202.620,335.060 202.800,334.400 202.800 C 333.740 202.800,333.200 202.980,333.200 203.200 C 333.200 203.420,332.570 203.600,331.800 203.600 C 331.030 203.600,330.400 203.780,330.400 204.000 C 330.400 204.220,329.770 204.400,329.000 204.400 C 328.230 204.400,327.600 204.580,327.600 204.800 C 327.600 205.020,326.970 205.200,326.200 205.200 C 325.430 205.200,324.800 205.380,324.800 205.600 C 324.800 205.820,324.080 206.000,323.200 206.000 C 322.320 206.000,321.600 206.180,321.600 206.400 C 321.600 206.620,320.880 206.800,320.000 206.800 C 319.120 206.800,318.400 206.980,318.400 207.200 C 318.400 207.420,317.680 207.600,316.800 207.600 C 315.920 207.600,315.200 207.754,315.200 207.943 C 315.200 208.131,313.923 208.404,312.362 208.549 C 310.801 208.694,309.193 208.990,308.788 209.206 C 308.384 209.423,307.331 209.600,306.450 209.600 C 305.568 209.600,304.736 209.780,304.600 210.000 C 304.464 210.220,303.564 210.400,302.600 210.400 C 301.636 210.400,300.736 210.580,300.600 210.800 C 300.464 211.020,299.564 211.200,298.600 211.200 C 297.636 211.200,296.736 211.380,296.600 211.600 C 296.464 211.820,295.474 212.000,294.400 212.000 C 293.326 212.000,292.336 212.180,292.200 212.400 C 292.064 212.620,290.883 212.800,289.576 212.800 C 288.259 212.800,287.200 212.978,287.200 213.200 C 287.200 213.422,286.133 213.600,284.800 213.600 C 283.467 213.600,282.400 213.778,282.400 214.000 C 282.400 214.222,281.341 214.400,280.024 214.400 C 278.717 214.400,277.536 214.580,277.400 214.800 C 277.264 215.020,275.903 215.200,274.376 215.200 C 272.792 215.200,271.600 215.372,271.600 215.600 C 271.600 215.829,270.400 216.000,268.800 216.000 C 267.200 216.000,266.000 216.171,266.000 216.400 C 266.000 216.635,264.600 216.800,262.600 216.800 C 260.600 216.800,259.200 216.965,259.200 217.200 C 259.200 217.422,258.133 217.600,256.800 217.600 L 254.400 217.600 254.400 191.800 L 254.400 166.000 244.200 166.000 L 234.000 166.000 234.000 126.597 L 234.000 87.195 290.300 87.365 C 321.265 87.459,348.175 87.653,350.100 87.797 M239.600 213.200 L 239.600 245.600 200.000 245.600 L 160.400 245.600 160.400 213.200 L 160.400 180.800 200.000 180.800 L 239.600 180.800 239.600 213.200 M179.470 185.863 C 179.322 186.012,179.200 195.463,179.200 206.867 L 179.200 227.600 185.800 227.600 L 192.400 227.600 192.400 231.351 C 192.400 237.024,193.917 239.492,198.177 240.750 C 203.604 242.352,207.600 238.366,207.600 231.351 L 207.600 227.600 214.204 227.600 L 220.807 227.600 220.704 206.700 L 220.600 185.800 200.170 185.696 C 188.934 185.639,179.619 185.714,179.470 185.863 M206.000 206.600 L 206.000 212.800 200.000 212.800 L 194.000 212.800 194.000 206.600 L 194.000 200.400 200.000 200.400 L 206.000 200.400 206.000 206.600 M23.200 204.845 C 23.200 205.040,23.740 205.200,24.400 205.200 C 25.060 205.200,25.600 205.380,25.600 205.600 C 25.600 205.820,26.039 206.000,26.576 206.000 C 27.113 206.000,27.664 206.180,27.800 206.400 C 27.936 206.620,28.476 206.800,29.000 206.800 C 29.524 206.800,30.064 206.980,30.200 207.200 C 30.336 207.420,30.876 207.600,31.400 207.600 C 31.924 207.600,32.451 207.759,32.571 207.954 C 32.692 208.148,33.598 208.429,34.586 208.577 C 35.573 208.725,36.486 209.016,36.614 209.223 C 36.742 209.430,37.276 209.600,37.800 209.600 C 38.324 209.600,38.864 209.780,39.000 210.000 C 39.136 210.220,39.687 210.400,40.224 210.400 C 40.761 210.400,41.200 210.580,41.200 210.800 C 41.200 211.020,41.740 211.200,42.400 211.200 C 43.060 211.200,43.600 211.380,43.600 211.600 C 43.600 211.820,44.039 212.000,44.576 212.000 C 45.113 212.000,45.664 212.180,45.800 212.400 C 45.936 212.620,46.476 212.800,47.000 212.800 C 47.524 212.800,48.064 212.980,48.200 213.200 C 48.336 213.420,48.876 213.600,49.400 213.600 C 49.924 213.600,50.464 213.780,50.600 214.000 C 50.736 214.220,51.276 214.400,51.800 214.400 C 52.324 214.400,52.864 214.580,53.000 214.800 C 53.136 215.020,53.676 215.200,54.200 215.200 C 54.724 215.200,55.264 215.380,55.400 215.600 C 55.536 215.820,56.267 216.000,57.024 216.000 C 57.781 216.000,58.400 216.180,58.400 216.400 C 58.400 216.620,58.940 216.800,59.600 216.800 C 60.260 216.800,60.800 216.980,60.800 217.200 C 60.800 217.420,61.430 217.600,62.200 217.600 C 62.970 217.600,63.600 217.780,63.600 218.000 C 63.600 218.220,64.140 218.400,64.800 218.400 C 65.460 218.400,66.000 218.580,66.000 218.800 C 66.000 219.020,66.619 219.200,67.376 219.200 C 68.133 219.200,68.852 219.360,68.973 219.556 C 69.094 219.751,69.824 220.021,70.596 220.156 C 71.368 220.290,72.632 220.510,73.404 220.644 C 74.176 220.779,74.906 221.049,75.027 221.244 C 75.148 221.440,75.766 221.600,76.400 221.600 C 77.034 221.600,77.652 221.761,77.774 221.958 C 77.895 222.155,78.671 222.418,79.497 222.542 C 80.324 222.667,81.720 222.877,82.600 223.009 C 83.480 223.142,84.560 223.406,85.000 223.598 C 85.440 223.789,86.340 224.037,87.000 224.148 C 87.660 224.260,89.010 224.534,90.000 224.758 C 90.990 224.982,92.565 225.173,93.500 225.183 C 94.435 225.192,95.200 225.380,95.200 225.600 C 95.200 225.820,96.190 226.000,97.400 226.000 C 98.610 226.000,99.600 226.180,99.600 226.400 C 99.600 226.620,100.500 226.800,101.600 226.800 C 102.700 226.800,103.600 226.980,103.600 227.200 C 103.600 227.422,104.667 227.600,106.000 227.600 C 107.333 227.600,108.400 227.778,108.400 228.000 C 108.400 228.220,109.390 228.400,110.600 228.400 C 111.810 228.400,112.800 228.580,112.800 228.800 C 112.800 229.022,113.859 229.200,115.176 229.200 C 116.483 229.200,117.664 229.380,117.800 229.600 C 117.936 229.820,119.387 230.000,121.024 230.000 C 122.741 230.000,124.000 230.169,124.000 230.400 C 124.000 230.631,125.267 230.800,127.000 230.800 C 128.733 230.800,130.000 230.969,130.000 231.200 C 130.000 231.437,131.467 231.600,133.600 231.600 C 135.733 231.600,137.200 231.763,137.200 232.000 C 137.200 232.237,138.676 232.400,140.829 232.400 C 146.007 232.400,145.600 231.156,145.600 246.971 L 145.600 260.400 155.800 260.400 L 166.000 260.400 166.000 268.392 L 166.000 276.384 170.988 281.492 C 176.566 287.204,178.523 289.161,185.296 295.798 L 189.991 300.400 200.120 300.400 L 210.249 300.400 222.124 288.524 L 234.000 276.649 234.000 268.524 L 234.000 260.400 244.200 260.400 L 254.400 260.400 254.400 246.400 L 254.400 232.400 257.376 232.400 C 259.013 232.400,260.464 232.220,260.600 232.000 C 260.736 231.780,262.367 231.600,264.224 231.600 C 266.208 231.600,267.600 231.435,267.600 231.200 C 267.600 230.969,268.867 230.800,270.600 230.800 C 272.333 230.800,273.600 230.631,273.600 230.400 C 273.600 230.171,274.800 230.000,276.400 230.000 C 278.000 230.000,279.200 229.829,279.200 229.600 C 279.200 229.375,280.325 229.200,281.776 229.200 C 283.193 229.200,284.464 229.020,284.600 228.800 C 284.736 228.580,285.816 228.400,287.000 228.400 C 288.184 228.400,289.264 228.220,289.400 228.000 C 289.536 227.780,290.627 227.600,291.824 227.600 C 293.021 227.600,294.000 227.420,294.000 227.200 C 294.000 226.978,295.067 226.800,296.400 226.800 C 297.733 226.800,298.800 226.622,298.800 226.400 C 298.800 226.180,299.700 226.000,300.800 226.000 C 301.900 226.000,302.800 225.845,302.800 225.655 C 302.800 225.465,304.372 225.182,306.293 225.027 C 308.215 224.871,309.970 224.596,310.193 224.417 C 310.417 224.237,311.320 223.984,312.200 223.855 C 313.080 223.725,314.566 223.506,315.503 223.367 C 316.439 223.229,317.305 222.955,317.426 222.758 C 317.548 222.561,318.346 222.400,319.200 222.400 C 320.054 222.400,320.864 222.220,321.000 222.000 C 321.136 221.780,321.856 221.600,322.600 221.600 C 323.344 221.600,324.064 221.420,324.200 221.200 C 324.336 220.980,325.056 220.800,325.800 220.800 C 326.544 220.800,327.252 220.640,327.373 220.444 C 327.581 220.108,328.076 219.985,331.704 219.367 C 332.531 219.227,333.306 218.951,333.427 218.756 C 333.548 218.560,334.267 218.400,335.024 218.400 C 335.781 218.400,336.400 218.220,336.400 218.000 C 336.400 217.780,336.940 217.600,337.600 217.600 C 338.260 217.600,338.800 217.420,338.800 217.200 C 338.800 216.980,339.430 216.800,340.200 216.800 C 340.970 216.800,341.600 216.620,341.600 216.400 C 341.600 216.180,342.140 216.000,342.800 216.000 C 343.460 216.000,344.000 215.820,344.000 215.600 C 344.000 215.380,344.529 215.200,345.176 215.200 C 345.823 215.200,346.464 215.020,346.600 214.800 C 346.736 214.580,347.366 214.400,348.000 214.400 C 348.634 214.400,349.264 214.220,349.400 214.000 C 349.536 213.780,350.076 213.600,350.600 213.600 C 351.124 213.600,351.664 213.420,351.800 213.200 C 351.936 212.980,352.476 212.800,353.000 212.800 C 353.524 212.800,354.064 212.620,354.200 212.400 C 354.336 212.180,354.887 212.000,355.424 212.000 C 355.961 212.000,356.400 211.820,356.400 211.600 C 356.400 211.380,356.940 211.200,357.600 211.200 C 358.260 211.200,358.800 211.020,358.800 210.800 C 358.800 210.580,359.340 210.400,360.000 210.400 C 360.660 210.400,361.200 210.220,361.200 210.000 C 361.200 209.780,361.639 209.600,362.176 209.600 C 362.713 209.600,363.258 209.430,363.386 209.223 C 363.514 209.016,364.427 208.725,365.414 208.577 C 366.402 208.429,367.308 208.148,367.429 207.954 C 367.549 207.759,368.076 207.600,368.600 207.600 C 369.124 207.600,369.664 207.420,369.800 207.200 C 369.936 206.980,370.476 206.800,371.000 206.800 C 371.524 206.800,372.064 206.620,372.200 206.400 C 372.336 206.180,372.887 206.000,373.424 206.000 C 373.961 206.000,374.400 205.820,374.400 205.600 C 374.400 205.380,374.940 205.200,375.600 205.200 C 376.260 205.200,376.800 205.020,376.800 204.800 C 376.800 204.580,377.340 204.400,378.000 204.400 L 379.200 204.400 379.200 291.962 L 379.200 379.524 378.300 381.259 C 377.321 383.146,375.881 384.800,375.218 384.800 C 374.988 384.800,374.800 384.980,374.800 385.200 C 374.800 385.466,316.267 385.600,200.000 385.600 C 83.733 385.600,25.200 385.466,25.200 385.200 C 25.200 384.980,25.012 384.800,24.782 384.800 C 24.119 384.800,22.679 383.146,21.700 381.259 L 20.800 379.524 20.800 291.831 L 20.800 204.139 22.000 204.315 C 22.660 204.412,23.200 204.650,23.200 204.845 M219.192 265.300 L 219.184 270.200 211.454 277.900 L 203.724 285.600 200.000 285.600 L 196.276 285.600 188.546 277.900 L 180.816 270.200 180.808 265.300 L 180.800 260.400 200.000 260.400 L 219.200 260.400 219.192 265.300 M279.467 326.267 C 279.320 326.413,279.200 335.773,279.200 347.067 L 279.200 367.600 319.800 367.600 L 360.400 367.600 360.400 346.800 L 360.400 326.000 320.067 326.000 C 297.883 326.000,279.613 326.120,279.467 326.267 M345.600 347.000 L 345.600 352.800 319.800 352.800 L 294.000 352.800 294.000 347.000 L 294.000 341.200 319.800 341.200 L 345.600 341.200 345.600 347.000 " stroke="none" fill="#040404" fill-rule="evenodd"></path><path id="path1" d="" stroke="none" fill="#080404" fill-rule="evenodd"></path><path id="path2" d="" stroke="none" fill="#080404" fill-rule="evenodd"></path><path id="path3" d="" stroke="none" fill="#080404" fill-rule="evenodd"></path><path id="path4" d="" stroke="none" fill="#080404" fill-rule="evenodd"></path></g></svg>