<svg id="svg" version="1.1" xmlns="http://www.w3.org/2000/svg" xmlns:xlink="http://www.w3.org/1999/xlink" width="400" height="400" viewBox="0, 0, 400,400"><g id="svgg"><path id="path0" d="M198.000 38.400 C 198.000 38.620,197.542 38.800,196.982 38.800 C 195.859 38.800,194.000 40.410,194.000 41.382 C 194.000 41.722,193.820 42.000,193.600 42.000 C 193.338 42.000,193.200 49.659,193.200 64.176 C 193.200 76.601,193.044 86.449,192.846 86.571 C 192.652 86.692,192.371 87.602,192.222 88.595 C 192.073 89.588,191.782 90.400,191.575 90.400 C 191.369 90.400,191.200 90.839,191.200 91.376 C 191.200 91.913,191.020 92.464,190.800 92.600 C 190.580 92.736,190.400 93.197,190.400 93.624 C 190.400 94.051,190.220 94.400,190.000 94.400 C 189.780 94.400,189.600 94.850,189.600 95.400 C 189.600 95.950,189.420 96.400,189.200 96.400 C 188.980 96.400,188.800 96.760,188.800 97.200 C 188.800 97.640,188.620 98.000,188.400 98.000 C 188.180 98.000,188.000 98.360,188.000 98.800 C 188.000 99.240,187.820 99.600,187.600 99.600 C 187.380 99.600,187.200 99.960,187.200 100.400 C 187.200 100.840,187.020 101.200,186.800 101.200 C 186.580 101.200,186.400 101.560,186.400 102.000 C 186.400 102.440,186.220 102.800,186.000 102.800 C 185.780 102.800,185.600 103.160,185.600 103.600 C 185.600 104.040,185.420 104.400,185.200 104.400 C 184.980 104.400,184.800 104.760,184.800 105.200 C 184.800 105.640,184.620 106.000,184.400 106.000 C 184.180 106.000,184.000 106.278,184.000 106.617 C 184.000 106.956,183.640 107.620,183.200 108.092 C 182.760 108.564,182.400 109.187,182.400 109.475 C 182.400 109.764,182.264 110.000,182.098 110.000 C 181.931 110.000,181.536 110.585,181.220 111.300 C 180.903 112.015,180.320 112.949,179.922 113.375 C 179.525 113.802,179.200 114.387,179.200 114.675 C 179.200 114.964,179.049 115.200,178.864 115.200 C 178.680 115.200,178.320 115.657,178.066 116.215 C 177.812 116.773,177.420 117.448,177.196 117.715 C 176.253 118.838,174.800 121.272,174.800 121.729 C 174.800 122.001,174.440 122.483,174.000 122.800 C 173.560 123.117,173.200 123.540,173.200 123.740 C 173.200 124.095,171.747 125.872,168.976 128.907 C 168.219 129.735,167.600 130.561,167.600 130.742 C 167.600 130.923,166.430 132.306,165.000 133.815 C 163.570 135.325,162.400 136.692,162.400 136.853 C 162.400 137.090,159.606 140.219,158.035 141.741 C 157.841 141.929,155.999 143.730,153.941 145.744 C 151.884 147.758,149.570 149.850,148.800 150.392 C 148.030 150.934,146.557 152.238,145.526 153.289 C 144.495 154.340,143.536 155.200,143.395 155.200 C 143.253 155.200,142.446 155.920,141.600 156.800 C 140.754 157.680,139.824 158.403,139.531 158.406 C 139.239 158.410,138.391 158.950,137.646 159.606 C 136.901 160.263,136.144 160.800,135.964 160.800 C 135.784 160.800,135.186 161.250,134.636 161.800 C 134.086 162.350,133.475 162.800,133.278 162.800 C 133.080 162.800,132.354 163.340,131.663 164.000 C 130.972 164.660,130.202 165.200,129.951 165.200 C 129.699 165.200,129.203 165.516,128.847 165.903 C 128.491 166.289,127.705 166.860,127.100 167.170 C 126.495 167.481,126.000 167.885,126.000 168.068 C 126.000 168.250,125.770 168.400,125.488 168.400 C 125.207 168.400,124.717 168.760,124.400 169.200 C 124.083 169.640,123.586 170.000,123.295 170.000 C 123.004 170.000,122.380 170.360,121.908 170.800 C 121.436 171.240,120.813 171.600,120.525 171.600 C 120.236 171.600,120.000 171.780,120.000 172.000 C 120.000 172.220,119.680 172.400,119.288 172.400 C 118.897 172.400,118.317 172.760,118.000 173.200 C 117.683 173.640,117.103 174.000,116.712 174.000 C 116.320 174.000,116.000 174.180,116.000 174.400 C 116.000 174.620,115.651 174.800,115.224 174.800 C 114.797 174.800,114.343 174.968,114.216 175.174 C 114.089 175.380,112.953 176.047,111.692 176.656 C 110.432 177.264,109.310 177.865,109.200 177.991 C 109.090 178.117,108.145 178.665,107.100 179.209 C 106.055 179.753,105.200 180.334,105.200 180.499 C 105.200 180.665,104.840 180.800,104.400 180.800 C 103.960 180.800,103.600 180.980,103.600 181.200 C 103.600 181.420,103.240 181.600,102.800 181.600 C 102.360 181.600,102.000 181.780,102.000 182.000 C 102.000 182.220,101.640 182.400,101.200 182.400 C 100.760 182.400,100.400 182.580,100.400 182.800 C 100.400 183.020,100.040 183.200,99.600 183.200 C 99.160 183.200,98.800 183.380,98.800 183.600 C 98.800 183.820,98.440 184.000,98.000 184.000 C 97.560 184.000,97.200 184.180,97.200 184.400 C 97.200 184.620,96.750 184.800,96.200 184.800 C 95.650 184.800,95.200 184.980,95.200 185.200 C 95.200 185.420,94.966 185.600,94.680 185.600 C 93.944 185.600,92.007 186.541,92.003 186.900 C 92.001 187.065,91.640 187.200,91.200 187.200 C 90.760 187.200,90.400 187.380,90.400 187.600 C 90.400 187.820,89.961 188.000,89.424 188.000 C 88.887 188.000,88.336 188.180,88.200 188.400 C 88.064 188.620,87.603 188.800,87.176 188.800 C 86.749 188.800,86.400 188.980,86.400 189.200 C 86.400 189.420,86.040 189.600,85.600 189.600 C 85.160 189.600,84.800 189.780,84.800 190.000 C 84.800 190.220,84.393 190.400,83.896 190.400 C 82.897 190.400,79.993 192.709,79.997 193.500 C 79.999 193.775,79.820 194.000,79.600 194.000 C 79.066 194.000,79.066 203.070,79.600 203.400 C 79.820 203.536,80.000 204.256,80.000 205.000 C 80.000 205.744,80.180 206.464,80.400 206.600 C 80.620 206.736,80.800 207.287,80.800 207.824 C 80.800 208.361,80.980 208.800,81.200 208.800 C 81.420 208.800,81.600 209.160,81.600 209.600 C 81.600 210.040,81.780 210.400,82.000 210.400 C 82.220 210.400,82.400 210.760,82.400 211.200 C 82.400 211.640,82.580 212.000,82.800 212.000 C 83.020 212.000,83.200 212.360,83.200 212.800 C 83.200 213.240,83.380 213.600,83.600 213.600 C 83.820 213.600,84.000 213.843,84.000 214.141 C 84.000 214.438,84.540 215.246,85.200 215.937 C 85.860 216.628,86.400 217.353,86.400 217.548 C 86.400 217.744,87.120 218.645,88.000 219.552 L 89.600 221.201 89.600 224.977 C 89.600 227.063,89.421 228.863,89.200 229.000 C 88.973 229.140,88.800 231.137,88.800 233.624 C 88.800 236.275,88.642 238.000,88.400 238.000 C 88.159 238.000,88.000 239.659,88.000 242.176 C 88.000 244.529,87.825 246.461,87.600 246.600 C 87.375 246.739,87.200 248.663,87.200 251.000 C 87.200 253.337,87.025 255.261,86.800 255.400 C 86.575 255.539,86.400 257.463,86.400 259.800 C 86.400 262.137,86.225 264.061,86.000 264.200 C 85.773 264.340,85.600 266.337,85.600 268.824 C 85.600 271.475,85.442 273.200,85.200 273.200 C 84.959 273.200,84.800 274.859,84.800 277.376 C 84.800 279.729,84.625 281.661,84.400 281.800 C 84.175 281.939,84.000 283.863,84.000 286.200 C 84.000 288.537,83.825 290.461,83.600 290.600 C 83.373 290.740,83.200 292.737,83.200 295.224 C 83.200 297.875,83.042 299.600,82.800 299.600 C 82.558 299.600,82.400 301.333,82.400 304.000 C 82.400 306.667,82.242 308.400,82.000 308.400 C 81.759 308.400,81.600 310.040,81.600 312.520 C 81.600 314.786,81.431 316.811,81.225 317.020 C 81.019 317.229,80.748 319.380,80.622 321.800 C 80.497 324.220,80.294 328.135,80.172 330.500 C 80.050 332.865,79.781 334.800,79.575 334.800 C 79.364 334.800,79.200 336.729,79.200 339.200 C 79.200 341.671,79.036 343.600,78.825 343.600 C 78.619 343.600,78.364 345.535,78.259 347.900 C 78.154 350.265,77.942 352.981,77.789 353.935 C 77.611 355.037,77.672 355.832,77.955 356.115 C 78.200 356.360,78.400 356.939,78.400 357.402 C 78.400 358.408,80.848 361.200,81.730 361.200 C 82.073 361.200,82.464 361.380,82.600 361.600 C 82.762 361.862,97.081 362.000,124.255 362.000 L 165.663 362.000 167.131 360.500 C 167.939 359.675,169.094 358.745,169.697 358.434 C 170.901 357.813,176.800 351.860,176.800 351.267 C 176.800 351.063,177.520 350.155,178.400 349.248 C 179.280 348.341,180.000 347.369,180.000 347.088 C 180.000 346.807,180.360 346.317,180.800 346.000 C 181.240 345.683,181.600 345.143,181.600 344.800 C 181.600 344.457,181.960 343.917,182.400 343.600 C 182.840 343.283,183.200 342.786,183.200 342.495 C 183.200 342.204,183.560 341.580,184.000 341.108 C 184.440 340.636,185.024 339.744,185.297 339.125 C 185.571 338.506,185.931 338.000,186.098 338.000 C 186.264 338.000,186.400 337.640,186.400 337.200 C 186.400 336.760,186.535 336.399,186.700 336.397 C 186.865 336.395,187.199 335.990,187.442 335.497 C 187.686 335.004,188.721 332.955,189.742 330.945 C 190.764 328.935,191.600 327.000,191.600 326.645 C 191.600 326.290,191.780 326.000,192.000 326.000 C 192.220 326.000,192.400 325.550,192.400 325.000 C 192.400 324.450,192.580 324.000,192.800 324.000 C 193.020 324.000,193.200 323.640,193.200 323.200 C 193.200 322.760,193.380 322.400,193.600 322.400 C 193.820 322.400,194.000 322.040,194.000 321.600 C 194.000 321.160,194.180 320.800,194.400 320.800 C 194.620 320.800,194.800 320.451,194.800 320.024 C 194.800 319.597,194.980 319.136,195.200 319.000 C 195.420 318.864,195.600 318.313,195.600 317.776 C 195.600 317.239,195.780 316.800,196.000 316.800 C 196.220 316.800,196.400 316.440,196.400 316.000 C 196.400 315.560,196.580 315.200,196.800 315.200 C 197.020 315.200,197.200 314.660,197.200 314.000 C 197.200 313.067,197.378 312.800,198.000 312.800 C 198.533 312.800,198.800 313.067,198.800 313.600 C 198.800 314.040,198.980 314.400,199.200 314.400 C 199.420 314.400,199.600 314.940,199.600 315.600 C 199.600 316.260,199.780 316.800,200.000 316.800 C 200.220 316.800,200.400 317.160,200.400 317.600 C 200.400 318.040,200.580 318.400,200.800 318.400 C 201.020 318.400,201.200 318.672,201.200 319.005 C 201.200 319.338,201.360 319.923,201.556 320.305 C 201.752 320.687,202.337 321.900,202.856 323.000 C 203.375 324.100,203.935 325.060,204.100 325.133 C 204.265 325.207,204.400 325.612,204.400 326.033 C 204.400 326.455,204.580 326.800,204.800 326.800 C 205.020 326.800,205.200 327.149,205.200 327.576 C 205.200 328.003,205.380 328.464,205.600 328.600 C 205.820 328.736,206.000 329.163,206.000 329.548 C 206.000 329.934,206.360 330.636,206.800 331.108 C 207.240 331.580,207.600 332.244,207.600 332.583 C 207.600 332.922,207.780 333.200,208.000 333.200 C 208.220 333.200,208.404 333.515,208.409 333.900 C 208.414 334.285,209.007 335.680,209.727 337.000 C 211.755 340.719,212.148 341.343,212.900 342.043 C 213.285 342.401,213.600 342.948,213.600 343.259 C 213.600 343.569,213.960 344.083,214.400 344.400 C 214.840 344.717,215.200 345.209,215.200 345.492 C 215.200 345.775,215.740 346.572,216.400 347.263 C 217.060 347.954,217.600 348.669,217.600 348.853 C 217.600 349.173,219.538 351.344,223.024 354.930 C 225.512 357.489,227.922 359.600,228.356 359.600 C 228.570 359.600,228.860 359.960,229.000 360.400 C 229.178 360.960,229.605 361.200,230.427 361.200 C 231.072 361.200,231.600 361.380,231.600 361.600 C 231.600 361.864,246.333 362.000,275.000 362.000 C 303.667 362.000,318.400 361.864,318.400 361.600 C 318.400 361.380,318.678 361.200,319.018 361.200 C 319.692 361.200,321.108 359.865,321.900 358.483 C 322.520 357.402,322.608 345.776,322.000 345.400 C 321.775 345.261,321.600 343.337,321.600 341.000 C 321.600 338.663,321.425 336.739,321.200 336.600 C 320.975 336.461,320.800 334.537,320.800 332.200 C 320.800 329.863,320.625 327.939,320.400 327.800 C 320.175 327.661,320.000 325.737,320.000 323.400 C 320.000 321.063,319.825 319.139,319.600 319.000 C 319.373 318.860,319.200 316.863,319.200 314.376 C 319.200 311.725,319.042 310.000,318.800 310.000 C 318.558 310.000,318.400 308.267,318.400 305.600 C 318.400 302.933,318.242 301.200,318.000 301.200 C 317.759 301.200,317.600 299.541,317.600 297.024 C 317.600 294.671,317.425 292.739,317.200 292.600 C 316.973 292.460,316.800 290.470,316.800 288.000 C 316.800 285.530,316.627 283.540,316.400 283.400 C 316.175 283.261,316.000 281.329,316.000 278.976 C 316.000 276.459,315.841 274.800,315.600 274.800 C 315.358 274.800,315.200 273.067,315.200 270.400 C 315.200 267.733,315.042 266.000,314.800 266.000 C 314.559 266.000,314.400 264.341,314.400 261.824 C 314.400 259.471,314.225 257.539,314.000 257.400 C 313.773 257.260,313.600 255.270,313.600 252.800 C 313.600 250.330,313.427 248.340,313.200 248.200 C 312.975 248.061,312.800 246.129,312.800 243.776 C 312.800 241.259,312.641 239.600,312.400 239.600 C 312.158 239.600,312.000 237.867,312.000 235.200 C 312.000 232.533,311.842 230.800,311.600 230.800 C 311.358 230.800,311.200 229.075,311.200 226.424 C 311.200 224.017,311.027 221.940,310.816 221.810 C 310.412 221.560,310.954 220.776,313.000 218.644 C 313.660 217.957,314.455 216.900,314.768 216.297 C 315.080 215.694,315.485 215.200,315.668 215.200 C 315.850 215.200,316.000 214.840,316.000 214.400 C 316.000 213.960,316.147 213.600,316.326 213.600 C 316.792 213.600,318.400 210.469,318.400 209.562 C 318.400 209.143,318.580 208.800,318.800 208.800 C 319.020 208.800,319.200 208.361,319.200 207.824 C 319.200 207.287,319.380 206.736,319.600 206.600 C 319.820 206.464,320.000 205.744,320.000 205.000 C 320.000 204.256,320.180 203.536,320.400 203.400 C 320.629 203.258,320.800 201.196,320.800 198.576 C 320.800 195.792,320.643 194.000,320.400 194.000 C 320.180 194.000,320.001 193.775,320.003 193.500 C 320.007 192.709,317.103 190.400,316.104 190.400 C 315.607 190.400,315.200 190.220,315.200 190.000 C 315.200 189.780,314.840 189.600,314.400 189.600 C 313.960 189.600,313.600 189.420,313.600 189.200 C 313.600 188.980,313.251 188.800,312.824 188.800 C 312.397 188.800,311.936 188.620,311.800 188.400 C 311.664 188.180,311.128 188.000,310.610 188.000 C 310.091 188.000,309.607 187.862,309.533 187.694 C 309.460 187.526,307.060 186.245,304.200 184.848 C 301.340 183.451,298.280 181.932,297.400 181.471 C 296.520 181.010,295.396 180.446,294.903 180.217 C 294.410 179.987,294.005 179.665,294.003 179.500 C 294.001 179.335,293.640 179.200,293.200 179.200 C 292.760 179.200,292.400 179.062,292.400 178.894 C 292.400 178.726,291.725 178.281,290.900 177.904 C 290.075 177.527,288.446 176.675,287.280 176.010 C 286.114 175.344,284.939 174.800,284.668 174.800 C 284.398 174.800,283.917 174.440,283.600 174.000 C 283.283 173.560,282.703 173.200,282.312 173.200 C 281.920 173.200,281.600 173.020,281.600 172.800 C 281.600 172.580,281.280 172.400,280.888 172.400 C 280.497 172.400,279.917 172.040,279.600 171.600 C 279.283 171.160,278.743 170.800,278.400 170.800 C 278.057 170.800,277.517 170.440,277.200 170.000 C 276.883 169.560,276.343 169.200,276.000 169.200 C 275.657 169.200,275.117 168.840,274.800 168.400 C 274.483 167.960,273.993 167.600,273.712 167.600 C 273.430 167.600,273.200 167.420,273.200 167.200 C 273.200 166.980,272.930 166.800,272.600 166.800 C 272.270 166.800,272.000 166.620,272.000 166.400 C 272.000 166.180,271.730 166.000,271.400 166.000 C 271.070 166.000,270.800 165.850,270.800 165.668 C 270.800 165.485,270.305 165.080,269.700 164.768 C 269.095 164.455,268.187 163.795,267.682 163.300 C 267.177 162.805,266.611 162.400,266.424 162.400 C 266.237 162.400,265.507 161.860,264.800 161.200 C 264.093 160.540,263.382 160.000,263.219 160.000 C 262.958 160.000,262.331 159.537,260.517 158.007 C 260.251 157.783,259.879 157.600,259.689 157.600 C 259.499 157.600,258.982 157.195,258.539 156.700 C 257.509 155.549,255.275 153.600,254.984 153.600 C 254.862 153.600,253.555 152.385,252.081 150.899 C 250.606 149.413,248.591 147.568,247.601 146.799 C 245.434 145.114,241.380 141.054,240.000 139.188 C 239.450 138.444,237.875 136.706,236.500 135.325 C 235.125 133.944,234.000 132.653,234.000 132.456 C 234.000 132.258,233.280 131.355,232.400 130.448 C 231.520 129.541,230.800 128.654,230.800 128.478 C 230.800 128.301,230.166 127.446,229.392 126.578 C 228.617 125.710,227.537 124.502,226.992 123.893 C 226.446 123.284,226.000 122.519,226.000 122.193 C 226.000 121.867,225.861 121.600,225.691 121.600 C 225.521 121.600,225.047 120.978,224.638 120.219 C 224.229 119.459,223.603 118.506,223.247 118.102 C 222.403 117.142,221.209 115.185,220.929 114.300 C 220.807 113.915,220.548 113.600,220.353 113.600 C 220.159 113.600,220.000 113.364,220.000 113.075 C 220.000 112.787,219.675 112.202,219.278 111.775 C 218.880 111.349,218.297 110.415,217.980 109.700 C 217.664 108.985,217.269 108.400,217.102 108.400 C 216.936 108.400,216.800 108.164,216.800 107.875 C 216.800 107.587,216.440 106.964,216.000 106.492 C 215.560 106.020,215.200 105.356,215.200 105.017 C 215.200 104.678,215.020 104.400,214.800 104.400 C 214.580 104.400,214.400 104.040,214.400 103.600 C 214.400 103.160,214.220 102.800,214.000 102.800 C 213.780 102.800,213.600 102.440,213.600 102.000 C 213.600 101.560,213.420 101.200,213.200 101.200 C 212.980 101.200,212.800 100.840,212.800 100.400 C 212.800 99.960,212.620 99.600,212.400 99.600 C 212.180 99.600,212.000 99.240,212.000 98.800 C 212.000 98.360,211.820 98.000,211.600 98.000 C 211.380 98.000,211.200 97.550,211.200 97.000 C 211.200 96.450,211.020 96.000,210.800 96.000 C 210.580 96.000,210.400 95.676,210.400 95.280 C 210.400 94.884,210.205 94.365,209.966 94.126 C 208.808 92.968,209.725 91.812,212.100 91.435 C 213.365 91.235,214.400 90.920,214.400 90.735 C 214.400 90.551,214.839 90.400,215.376 90.400 C 215.913 90.400,216.464 90.220,216.600 90.000 C 216.736 89.780,217.276 89.600,217.800 89.600 C 218.324 89.600,218.864 89.420,219.000 89.200 C 219.136 88.980,219.676 88.800,220.200 88.800 C 220.724 88.800,221.264 88.620,221.400 88.400 C 221.536 88.180,222.076 88.000,222.600 88.000 C 223.124 88.000,223.664 87.820,223.800 87.600 C 223.936 87.380,224.487 87.200,225.024 87.200 C 225.561 87.200,226.000 87.020,226.000 86.800 C 226.000 86.580,226.540 86.400,227.200 86.400 C 227.860 86.400,228.400 86.220,228.400 86.000 C 228.400 85.780,228.940 85.600,229.600 85.600 C 230.260 85.600,230.800 85.420,230.800 85.200 C 230.800 84.980,231.340 84.800,232.000 84.800 C 232.660 84.800,233.200 84.620,233.200 84.400 C 233.200 84.180,233.639 84.000,234.176 84.000 C 234.713 84.000,235.264 83.820,235.400 83.600 C 235.536 83.380,236.076 83.200,236.600 83.200 C 237.124 83.200,237.664 83.020,237.800 82.800 C 237.936 82.580,238.487 82.400,239.024 82.400 C 239.561 82.400,240.000 82.220,240.000 82.000 C 240.000 81.780,240.540 81.600,241.200 81.600 C 241.860 81.600,242.400 81.420,242.400 81.200 C 242.400 80.980,242.762 80.800,243.205 80.800 C 243.648 80.800,244.368 80.620,244.805 80.400 C 245.242 80.180,245.958 79.820,246.395 79.600 C 246.832 79.380,247.552 79.200,247.995 79.200 C 248.438 79.200,248.800 79.020,248.800 78.800 C 248.800 78.580,249.340 78.400,250.000 78.400 C 250.660 78.400,251.200 78.220,251.200 78.000 C 251.200 77.780,251.740 77.600,252.400 77.600 C 253.060 77.600,253.600 77.420,253.600 77.200 C 253.600 76.980,254.140 76.800,254.800 76.800 C 255.460 76.800,256.000 76.620,256.000 76.400 C 256.000 76.180,256.540 76.000,257.200 76.000 C 257.860 76.000,258.400 75.837,258.400 75.638 C 258.400 75.438,259.300 75.151,260.400 75.000 C 261.499 74.849,262.500 74.562,262.623 74.363 C 262.746 74.163,263.276 74.000,263.800 74.000 C 264.324 74.000,264.864 73.820,265.000 73.600 C 265.136 73.380,265.597 73.200,266.024 73.200 C 266.451 73.200,266.800 73.063,266.800 72.895 C 266.800 72.727,267.205 72.412,267.700 72.195 C 268.195 71.978,268.778 71.395,268.995 70.900 C 269.212 70.405,269.527 70.000,269.695 70.000 C 269.863 70.000,270.000 68.645,270.000 66.989 L 270.000 63.979 268.211 62.189 C 267.036 61.015,266.074 60.400,265.411 60.400 C 264.855 60.400,264.400 60.220,264.400 60.000 C 264.400 59.780,263.971 59.600,263.446 59.600 C 262.921 59.600,261.976 59.331,261.346 59.002 C 260.716 58.674,259.705 58.404,259.100 58.402 C 258.495 58.401,258.000 58.220,258.000 58.000 C 258.000 57.780,257.561 57.600,257.024 57.600 C 256.487 57.600,255.936 57.420,255.800 57.200 C 255.664 56.980,255.113 56.800,254.576 56.800 C 254.039 56.800,253.600 56.620,253.600 56.400 C 253.600 56.180,253.060 56.000,252.400 56.000 C 251.740 56.000,251.200 55.820,251.200 55.600 C 251.200 55.380,250.660 55.200,250.000 55.200 C 249.340 55.200,248.800 55.020,248.800 54.800 C 248.800 54.580,248.260 54.400,247.600 54.400 C 246.940 54.400,246.400 54.220,246.400 54.000 C 246.400 53.780,245.860 53.600,245.200 53.600 C 244.540 53.600,244.000 53.420,244.000 53.200 C 244.000 52.980,243.651 52.800,243.224 52.800 C 242.797 52.800,242.336 52.620,242.200 52.400 C 242.064 52.180,241.513 52.000,240.976 52.000 C 240.439 52.000,240.000 51.820,240.000 51.600 C 240.000 51.380,239.561 51.200,239.024 51.200 C 238.487 51.200,237.936 51.020,237.800 50.800 C 237.664 50.580,237.113 50.400,236.576 50.400 C 236.039 50.400,235.600 50.220,235.600 50.000 C 235.600 49.780,235.060 49.600,234.400 49.600 C 233.740 49.600,233.200 49.420,233.200 49.200 C 233.200 48.980,232.660 48.800,232.000 48.800 C 231.340 48.800,230.800 48.620,230.800 48.400 C 230.800 48.180,230.260 48.000,229.600 48.000 C 228.940 48.000,228.400 47.820,228.400 47.600 C 228.400 47.380,227.860 47.200,227.200 47.200 C 226.540 47.200,226.000 47.020,226.000 46.800 C 226.000 46.580,225.638 46.400,225.195 46.400 C 224.752 46.400,223.987 46.192,223.495 45.938 C 221.616 44.966,221.193 44.800,220.600 44.800 C 220.264 44.800,219.677 44.624,219.295 44.409 C 218.214 43.801,212.473 42.000,211.615 42.000 C 211.193 42.000,210.736 41.820,210.600 41.600 C 210.464 41.380,209.924 41.200,209.400 41.200 C 208.876 41.200,208.336 41.020,208.200 40.800 C 208.064 40.580,207.513 40.400,206.976 40.400 C 206.439 40.400,206.000 40.220,206.000 40.000 C 206.000 39.780,205.561 39.600,205.024 39.600 C 204.487 39.600,203.936 39.420,203.800 39.200 C 203.664 38.980,203.023 38.800,202.376 38.800 C 201.729 38.800,201.200 38.620,201.200 38.400 C 201.200 38.180,200.480 38.000,199.600 38.000 C 198.720 38.000,198.000 38.180,198.000 38.400 M209.081 55.650 C 209.697 55.897,210.560 56.231,211.000 56.391 C 214.914 57.816,216.072 58.178,217.900 58.548 C 219.055 58.781,220.000 59.113,220.000 59.286 C 220.000 59.459,220.540 59.600,221.200 59.600 C 221.860 59.600,222.400 59.780,222.400 60.000 C 222.400 60.220,222.940 60.400,223.600 60.400 C 224.260 60.400,224.800 60.580,224.800 60.800 C 224.800 61.020,225.340 61.200,226.000 61.200 C 226.660 61.200,227.200 61.380,227.200 61.600 C 227.200 61.820,227.639 62.000,228.176 62.000 C 228.713 62.000,229.264 62.180,229.400 62.400 C 229.536 62.620,230.076 62.800,230.600 62.800 C 231.124 62.800,231.664 62.980,231.800 63.200 C 231.936 63.420,232.487 63.600,233.024 63.600 C 233.561 63.600,234.000 63.780,234.000 64.000 C 234.000 64.220,234.540 64.400,235.200 64.400 C 235.860 64.400,236.400 64.580,236.400 64.800 C 236.400 65.020,236.940 65.200,237.600 65.200 C 238.260 65.200,238.800 65.380,238.800 65.600 C 238.800 65.820,239.160 66.000,239.600 66.000 C 240.040 66.000,240.400 66.180,240.400 66.400 C 240.400 66.620,239.860 66.800,239.200 66.800 C 238.540 66.800,238.000 66.980,238.000 67.200 C 238.000 67.420,237.460 67.600,236.800 67.600 C 236.140 67.600,235.600 67.780,235.600 68.000 C 235.600 68.220,235.060 68.400,234.400 68.400 C 233.740 68.400,233.200 68.580,233.200 68.800 C 233.200 69.020,232.660 69.200,232.000 69.200 C 231.340 69.200,230.800 69.380,230.800 69.600 C 230.800 69.820,230.260 70.000,229.600 70.000 C 228.940 70.000,228.400 70.180,228.400 70.400 C 228.400 70.620,227.950 70.800,227.400 70.800 C 226.850 70.800,226.400 70.980,226.400 71.200 C 226.400 71.420,225.860 71.600,225.200 71.600 C 224.540 71.600,224.000 71.780,224.000 72.000 C 224.000 72.220,223.460 72.400,222.800 72.400 C 222.140 72.400,221.600 72.580,221.600 72.800 C 221.600 73.020,221.060 73.200,220.400 73.200 C 219.740 73.200,219.200 73.380,219.200 73.600 C 219.200 73.820,218.660 74.000,218.000 74.000 C 217.340 74.000,216.800 74.180,216.800 74.400 C 216.800 74.620,216.395 74.803,215.900 74.806 C 214.877 74.813,210.572 76.095,210.147 76.520 C 209.993 76.674,209.457 76.800,208.957 76.800 C 208.457 76.800,207.936 76.980,207.800 77.200 C 206.970 78.543,206.800 76.710,206.800 66.400 C 206.800 54.188,206.694 54.690,209.081 55.650 M193.200 170.607 L 193.200 208.014 191.790 209.383 C 191.015 210.136,190.025 210.865,189.590 211.003 C 189.156 211.141,188.800 211.422,188.800 211.627 C 188.800 211.832,188.440 212.000,188.000 212.000 C 187.560 212.000,187.200 212.180,187.200 212.400 C 187.200 212.620,186.671 212.800,186.024 212.800 C 185.377 212.800,184.736 212.980,184.600 213.200 C 184.464 213.420,183.193 213.600,181.776 213.600 C 180.325 213.600,179.200 213.425,179.200 213.200 C 179.200 212.980,178.660 212.800,178.000 212.800 C 177.340 212.800,176.800 212.620,176.800 212.400 C 176.800 212.180,176.517 212.000,176.172 212.000 C 175.409 212.000,172.103 209.797,171.000 208.553 C 170.560 208.057,169.750 207.105,169.200 206.437 C 168.650 205.770,167.885 205.219,167.500 205.212 C 167.115 205.205,166.800 205.020,166.800 204.800 C 166.800 204.571,165.600 204.400,164.000 204.400 C 162.400 204.400,161.200 204.571,161.200 204.800 C 161.200 205.020,160.928 205.200,160.597 205.200 C 159.816 205.200,157.600 207.172,157.600 207.866 C 157.600 208.160,157.428 208.400,157.218 208.400 C 157.008 208.400,156.423 208.805,155.918 209.300 C 155.413 209.795,154.505 210.455,153.900 210.768 C 153.295 211.080,152.800 211.485,152.800 211.668 C 152.800 211.850,152.361 212.000,151.824 212.000 C 151.287 212.000,150.736 212.180,150.600 212.400 C 150.464 212.620,149.924 212.800,149.400 212.800 C 148.876 212.800,148.336 212.980,148.200 213.200 C 148.064 213.420,146.883 213.600,145.576 213.600 C 144.259 213.600,143.200 213.422,143.200 213.200 C 143.200 212.980,142.688 212.800,142.061 212.800 C 140.893 212.800,138.595 211.839,138.187 211.180 C 137.945 210.788,138.001 210.702,140.106 208.200 C 140.847 207.320,141.890 205.970,142.424 205.200 C 142.959 204.430,144.072 203.103,144.898 202.252 C 145.724 201.400,146.400 200.531,146.400 200.320 C 146.400 200.110,147.120 199.246,148.000 198.400 C 148.880 197.554,149.600 196.669,149.600 196.432 C 149.600 196.195,150.320 195.259,151.200 194.352 C 152.080 193.445,152.800 192.563,152.800 192.392 C 152.800 192.220,153.385 191.474,154.100 190.734 C 155.718 189.059,157.631 186.608,158.333 185.310 C 158.625 184.768,159.390 183.775,160.033 183.103 C 160.675 182.431,161.200 181.710,161.200 181.501 C 161.200 181.292,161.740 180.617,162.400 180.000 C 163.060 179.383,163.600 178.675,163.600 178.425 C 163.600 178.176,164.005 177.522,164.500 176.972 C 164.995 176.423,165.715 175.619,166.100 175.186 C 166.485 174.754,166.800 174.220,166.800 174.000 C 166.800 173.780,166.980 173.600,167.200 173.600 C 167.420 173.600,167.600 173.418,167.600 173.196 C 167.600 172.974,168.140 172.228,168.800 171.537 C 169.460 170.846,170.000 170.078,170.000 169.829 C 170.000 169.580,170.360 169.117,170.800 168.800 C 171.240 168.483,171.600 167.985,171.600 167.694 C 171.600 167.402,172.050 166.714,172.600 166.164 C 173.150 165.614,173.600 165.019,173.600 164.843 C 173.600 164.667,173.960 164.107,174.400 163.600 C 174.840 163.093,175.200 162.385,175.200 162.027 C 175.200 161.669,175.560 161.117,176.000 160.800 C 176.440 160.483,176.800 159.943,176.800 159.600 C 176.800 159.257,177.160 158.717,177.600 158.400 C 178.040 158.083,178.400 157.593,178.400 157.312 C 178.400 157.030,178.550 156.800,178.732 156.800 C 178.915 156.800,179.320 156.305,179.632 155.700 C 179.945 155.095,180.515 154.251,180.900 153.825 C 181.285 153.398,181.600 152.813,181.600 152.525 C 181.600 152.236,181.780 152.000,182.000 152.000 C 182.220 152.000,182.400 151.764,182.400 151.475 C 182.400 151.187,182.760 150.564,183.200 150.092 C 183.640 149.620,184.000 148.956,184.000 148.617 C 184.000 148.278,184.158 148.000,184.351 148.000 C 184.545 148.000,184.927 147.460,185.200 146.800 C 185.473 146.140,185.855 145.600,186.049 145.600 C 186.242 145.600,186.400 145.255,186.400 144.833 C 186.400 144.412,186.535 144.007,186.700 143.933 C 187.087 143.761,189.280 140.172,190.022 138.495 C 190.337 137.783,190.717 137.200,190.866 137.200 C 191.015 137.200,191.255 136.660,191.400 136.000 C 191.545 135.340,191.829 134.800,192.032 134.800 C 192.234 134.800,192.400 134.440,192.400 134.000 C 192.400 133.560,192.580 133.200,192.800 133.200 C 193.064 133.200,193.200 145.936,193.200 170.607 M209.800 138.204 C 210.680 140.062,211.513 141.586,211.651 141.591 C 211.790 141.596,212.127 142.140,212.400 142.800 C 212.673 143.460,213.055 144.000,213.249 144.000 C 213.442 144.000,213.600 144.278,213.600 144.617 C 213.600 144.956,213.960 145.620,214.400 146.092 C 214.840 146.564,215.200 147.187,215.200 147.475 C 215.200 147.764,215.380 148.000,215.600 148.000 C 215.820 148.000,216.000 148.320,216.000 148.712 C 216.000 149.103,216.360 149.683,216.800 150.000 C 217.240 150.317,217.600 150.897,217.600 151.288 C 217.600 151.680,217.780 152.000,218.000 152.000 C 218.220 152.000,218.400 152.270,218.400 152.600 C 218.400 152.930,218.580 153.200,218.800 153.200 C 219.020 153.200,219.200 153.470,219.200 153.800 C 219.200 154.130,219.380 154.400,219.600 154.400 C 219.820 154.400,220.000 154.636,220.000 154.925 C 220.000 155.213,220.360 155.836,220.800 156.308 C 221.240 156.780,221.600 157.314,221.600 157.495 C 221.600 157.676,221.960 158.083,222.400 158.400 C 222.840 158.717,223.200 159.257,223.200 159.600 C 223.200 159.943,223.560 160.483,224.000 160.800 C 224.440 161.117,224.800 161.599,224.800 161.871 C 224.800 162.451,226.420 165.017,227.586 166.286 C 228.034 166.773,228.400 167.359,228.400 167.589 C 228.400 167.819,228.940 168.572,229.600 169.263 C 230.260 169.954,230.800 170.722,230.800 170.971 C 230.800 171.220,231.160 171.683,231.600 172.000 C 232.040 172.317,232.400 172.742,232.400 172.945 C 232.400 173.148,232.940 173.829,233.600 174.460 C 234.260 175.091,234.800 175.787,234.800 176.007 C 234.800 176.227,235.340 176.972,236.000 177.663 C 236.660 178.354,237.200 179.090,237.200 179.299 C 237.200 179.508,237.740 180.183,238.400 180.800 C 239.060 181.417,239.600 182.137,239.600 182.400 C 239.600 182.663,240.095 183.360,240.700 183.947 C 241.305 184.534,242.070 185.484,242.400 186.057 C 243.193 187.434,245.089 189.812,246.700 191.451 C 247.415 192.178,248.000 192.927,248.000 193.116 C 248.000 193.304,248.900 194.422,250.000 195.600 C 251.100 196.778,252.000 197.904,252.000 198.102 C 252.000 198.300,252.681 199.124,253.513 199.931 C 254.345 200.739,255.461 202.030,255.994 202.800 C 256.526 203.570,257.247 204.470,257.595 204.800 C 257.943 205.130,258.941 206.300,259.812 207.400 C 260.684 208.500,261.743 209.718,262.167 210.106 C 263.037 210.904,262.214 211.960,260.700 211.987 C 260.315 211.994,260.000 212.180,260.000 212.400 C 260.000 212.620,259.460 212.800,258.800 212.800 C 258.140 212.800,257.600 212.980,257.600 213.200 C 257.600 213.422,256.541 213.600,255.224 213.600 C 253.917 213.600,252.736 213.420,252.600 213.200 C 252.464 212.980,251.733 212.800,250.976 212.800 C 250.219 212.800,249.600 212.620,249.600 212.400 C 249.600 212.180,249.240 212.000,248.800 212.000 C 248.360 212.000,248.000 211.849,248.000 211.664 C 248.000 211.480,247.562 211.129,247.027 210.885 C 245.432 210.158,241.200 206.259,241.200 205.517 C 241.200 205.342,240.930 205.200,240.600 205.200 C 240.270 205.200,240.000 205.020,240.000 204.800 C 240.000 204.569,238.733 204.400,237.000 204.400 C 235.267 204.400,234.000 204.569,234.000 204.800 C 234.000 205.020,233.762 205.200,233.471 205.200 C 233.180 205.200,231.534 206.550,229.813 208.200 C 228.092 209.850,226.440 211.200,226.142 211.200 C 225.844 211.200,225.600 211.380,225.600 211.600 C 225.600 211.820,225.240 212.000,224.800 212.000 C 224.360 212.000,224.000 212.180,224.000 212.400 C 224.000 212.620,223.471 212.800,222.824 212.800 C 222.177 212.800,221.536 212.980,221.400 213.200 C 221.264 213.420,219.993 213.600,218.576 213.600 C 217.125 213.600,216.000 213.425,216.000 213.200 C 216.000 212.980,215.460 212.800,214.800 212.800 C 214.140 212.800,213.600 212.620,213.600 212.400 C 213.600 212.180,213.240 212.000,212.800 212.000 C 212.360 212.000,212.000 211.820,212.000 211.600 C 212.000 211.380,211.723 211.200,211.384 211.200 C 211.046 211.200,210.056 210.494,209.184 209.631 L 207.600 208.063 207.600 171.431 C 207.600 151.284,207.735 134.806,207.900 134.813 C 208.065 134.820,208.920 136.346,209.800 138.204 M156.800 163.200 C 156.800 163.420,156.620 163.600,156.400 163.600 C 156.180 163.600,156.000 163.870,156.000 164.200 C 156.000 164.530,155.820 164.800,155.600 164.800 C 155.380 164.800,155.200 164.982,155.200 165.204 C 155.200 165.426,154.660 166.172,154.000 166.863 C 153.340 167.554,152.800 168.274,152.800 168.463 C 152.800 168.652,152.260 169.372,151.600 170.063 C 150.940 170.754,150.400 171.490,150.400 171.699 C 150.400 171.908,149.860 172.583,149.200 173.200 C 148.540 173.817,148.000 174.452,148.000 174.612 C 148.000 174.772,147.415 175.566,146.700 176.376 C 145.985 177.187,144.860 178.545,144.200 179.396 C 143.540 180.246,142.775 181.167,142.500 181.442 C 142.225 181.718,142.000 182.104,142.000 182.301 C 142.000 182.497,141.100 183.622,140.000 184.800 C 138.900 185.978,138.000 187.094,138.000 187.281 C 138.000 187.468,137.235 188.408,136.300 189.370 C 133.895 191.843,130.501 195.677,129.699 196.826 C 129.326 197.362,128.475 198.357,127.810 199.039 C 125.898 200.996,124.800 202.372,124.800 202.812 C 124.800 203.035,123.855 204.174,122.700 205.344 C 121.545 206.513,120.240 207.923,119.800 208.477 C 119.360 209.032,118.550 209.718,118.000 210.002 C 117.450 210.287,116.910 210.628,116.800 210.760 C 116.365 211.282,113.081 212.800,112.386 212.800 C 111.980 212.800,111.536 212.980,111.400 213.200 C 111.264 213.420,110.094 213.600,108.800 213.600 C 107.506 213.600,106.336 213.420,106.200 213.200 C 106.064 212.980,105.423 212.800,104.776 212.800 C 104.129 212.800,103.600 212.620,103.600 212.400 C 103.600 212.180,103.240 212.000,102.800 212.000 C 102.360 212.000,102.000 211.820,102.000 211.600 C 102.000 211.380,101.775 211.200,101.500 211.200 C 101.225 211.199,100.529 210.794,99.952 210.300 C 99.376 209.805,98.384 208.950,97.747 208.400 C 97.110 207.850,96.336 206.905,96.027 206.300 C 95.718 205.695,95.315 205.200,95.132 205.200 C 94.950 205.200,94.800 204.675,94.800 204.033 C 94.800 203.392,94.577 202.792,94.304 202.701 C 93.643 202.481,94.895 201.200,95.771 201.200 C 96.117 201.200,96.400 201.020,96.400 200.800 C 96.400 200.580,96.839 200.400,97.376 200.400 C 97.913 200.400,98.464 200.220,98.600 200.000 C 98.736 199.780,99.197 199.600,99.624 199.600 C 100.051 199.600,100.400 199.420,100.400 199.200 C 100.400 198.980,100.760 198.800,101.200 198.800 C 101.640 198.800,102.000 198.620,102.000 198.400 C 102.000 198.180,102.360 198.000,102.800 198.000 C 103.240 198.000,103.600 197.820,103.600 197.600 C 103.600 197.380,103.960 197.200,104.400 197.200 C 104.840 197.200,105.200 197.020,105.200 196.800 C 105.200 196.580,105.560 196.400,106.000 196.400 C 106.440 196.400,106.800 196.220,106.800 196.000 C 106.800 195.780,107.160 195.600,107.600 195.600 C 108.040 195.600,108.400 195.420,108.400 195.200 C 108.400 194.980,108.670 194.800,109.000 194.800 C 109.330 194.800,109.600 194.620,109.600 194.400 C 109.600 194.180,109.960 194.000,110.400 194.000 C 110.840 194.000,111.200 193.820,111.200 193.600 C 111.200 193.380,111.560 193.200,112.000 193.200 C 112.440 193.200,112.800 193.020,112.800 192.800 C 112.800 192.580,113.160 192.400,113.600 192.400 C 114.040 192.400,114.400 192.220,114.400 192.000 C 114.400 191.780,114.664 191.600,114.986 191.600 C 115.799 191.600,118.400 190.324,118.400 189.926 C 118.400 189.747,118.760 189.600,119.200 189.600 C 119.640 189.600,120.000 189.420,120.000 189.200 C 120.000 188.980,120.193 188.800,120.428 188.800 C 120.663 188.800,121.641 188.260,122.600 187.600 C 123.559 186.940,124.537 186.400,124.772 186.400 C 125.007 186.400,125.200 186.220,125.200 186.000 C 125.200 185.780,125.436 185.600,125.725 185.600 C 126.013 185.600,126.636 185.240,127.108 184.800 C 127.580 184.360,128.204 184.000,128.495 184.000 C 128.786 184.000,129.283 183.640,129.600 183.200 C 129.917 182.760,130.457 182.400,130.800 182.400 C 131.143 182.400,131.683 182.040,132.000 181.600 C 132.317 181.160,132.857 180.800,133.200 180.800 C 133.543 180.800,134.083 180.440,134.400 180.000 C 134.717 179.560,135.257 179.200,135.600 179.200 C 135.943 179.200,136.483 178.840,136.800 178.400 C 137.117 177.960,137.580 177.600,137.829 177.600 C 138.078 177.600,138.846 177.060,139.537 176.400 C 140.228 175.740,140.966 175.200,141.178 175.200 C 141.390 175.200,142.014 174.750,142.564 174.200 C 143.114 173.650,143.725 173.200,143.922 173.200 C 144.120 173.200,144.846 172.660,145.537 172.000 C 146.228 171.340,146.953 170.800,147.148 170.800 C 147.344 170.800,148.245 170.080,149.152 169.200 C 150.059 168.320,150.965 167.600,151.165 167.600 C 151.366 167.600,152.581 166.535,153.865 165.234 C 156.203 162.866,156.800 162.452,156.800 163.200 M246.032 165.200 C 247.373 166.520,248.640 167.600,248.848 167.600 C 249.056 167.600,249.857 168.230,250.627 169.000 C 251.397 169.770,252.178 170.400,252.363 170.400 C 252.548 170.400,253.387 171.030,254.228 171.800 C 255.069 172.570,255.909 173.200,256.096 173.200 C 256.283 173.200,256.886 173.650,257.436 174.200 C 257.986 174.750,258.610 175.200,258.822 175.200 C 259.034 175.200,259.772 175.740,260.463 176.400 C 261.154 177.060,261.922 177.600,262.171 177.600 C 262.420 177.600,262.883 177.960,263.200 178.400 C 263.517 178.840,264.057 179.200,264.400 179.200 C 264.743 179.200,265.283 179.560,265.600 180.000 C 265.917 180.440,266.457 180.800,266.800 180.800 C 267.143 180.800,267.683 181.160,268.000 181.600 C 268.317 182.040,268.857 182.400,269.200 182.400 C 269.543 182.400,270.083 182.760,270.400 183.200 C 270.717 183.640,271.214 184.000,271.505 184.000 C 271.796 184.000,272.420 184.360,272.892 184.800 C 273.364 185.240,273.987 185.600,274.275 185.600 C 274.564 185.600,274.800 185.780,274.800 186.000 C 274.800 186.220,274.993 186.400,275.228 186.400 C 275.463 186.400,276.441 186.940,277.400 187.600 C 278.359 188.260,279.337 188.800,279.572 188.800 C 279.807 188.800,280.000 188.980,280.000 189.200 C 280.000 189.420,280.262 189.600,280.582 189.600 C 280.902 189.600,281.828 190.050,282.638 190.600 C 283.449 191.150,284.447 191.600,284.856 191.600 C 285.265 191.600,285.600 191.780,285.600 192.000 C 285.600 192.220,285.960 192.400,286.400 192.400 C 286.840 192.400,287.200 192.580,287.200 192.800 C 287.200 193.020,287.560 193.200,288.000 193.200 C 288.440 193.200,288.800 193.380,288.800 193.600 C 288.800 193.820,289.160 194.000,289.600 194.000 C 290.040 194.000,290.400 194.180,290.400 194.400 C 290.400 194.620,290.760 194.800,291.200 194.800 C 291.640 194.800,292.000 194.980,292.000 195.200 C 292.000 195.420,292.270 195.600,292.600 195.600 C 292.930 195.600,293.200 195.780,293.200 196.000 C 293.200 196.220,293.560 196.400,294.000 196.400 C 294.440 196.400,294.800 196.580,294.800 196.800 C 294.800 197.020,295.160 197.200,295.600 197.200 C 296.040 197.200,296.400 197.380,296.400 197.600 C 296.400 197.820,296.760 198.000,297.200 198.000 C 297.640 198.000,298.000 198.180,298.000 198.400 C 298.000 198.620,298.360 198.800,298.800 198.800 C 299.240 198.800,299.600 198.980,299.600 199.200 C 299.600 199.420,300.039 199.600,300.576 199.600 C 301.113 199.600,301.664 199.780,301.800 200.000 C 301.936 200.220,302.397 200.400,302.824 200.400 C 303.251 200.400,303.600 200.580,303.600 200.800 C 303.600 201.020,303.883 201.200,304.229 201.200 C 305.105 201.200,306.357 202.481,305.696 202.701 C 305.423 202.792,305.200 203.392,305.200 204.033 C 305.200 204.675,305.050 205.200,304.868 205.200 C 304.685 205.200,304.282 205.695,303.973 206.300 C 303.664 206.905,302.890 207.850,302.253 208.400 C 301.616 208.950,300.624 209.805,300.048 210.300 C 299.471 210.794,298.775 211.199,298.500 211.200 C 298.225 211.200,298.000 211.380,298.000 211.600 C 298.000 211.820,297.640 212.000,297.200 212.000 C 296.760 212.000,296.400 212.180,296.400 212.400 C 296.400 212.620,295.871 212.800,295.224 212.800 C 294.577 212.800,293.936 212.980,293.800 213.200 C 293.664 213.420,292.494 213.600,291.200 213.600 C 289.906 213.600,288.736 213.420,288.600 213.200 C 288.464 212.980,288.037 212.800,287.652 212.800 C 286.117 212.800,281.665 210.196,280.200 208.442 C 279.760 207.915,278.365 206.385,277.099 205.042 C 274.044 201.799,273.527 201.197,272.693 199.904 C 272.305 199.301,271.180 198.001,270.193 197.014 C 269.207 196.028,268.400 195.093,268.400 194.937 C 268.400 194.781,267.500 193.785,266.400 192.725 C 265.300 191.665,264.400 190.619,264.400 190.401 C 264.400 190.183,263.500 189.085,262.400 187.961 C 261.300 186.838,260.400 185.749,260.400 185.541 C 260.400 185.334,259.995 184.730,259.500 184.201 C 258.382 183.005,257.976 182.485,257.105 181.126 C 256.726 180.535,255.962 179.598,255.408 179.044 C 254.854 178.490,254.400 177.926,254.400 177.791 C 254.400 177.657,253.772 176.884,253.003 176.073 C 252.235 175.263,251.605 174.473,251.603 174.318 C 251.602 174.163,251.150 173.586,250.600 173.036 C 250.050 172.486,249.600 171.886,249.600 171.702 C 249.600 171.518,248.880 170.572,248.000 169.600 C 247.120 168.628,246.400 167.688,246.400 167.512 C 246.400 167.337,245.860 166.628,245.200 165.937 C 244.540 165.246,244.000 164.438,244.000 164.141 C 244.000 163.843,243.820 163.600,243.600 163.600 C 243.380 163.600,243.200 163.420,243.200 163.200 C 243.200 162.505,243.535 162.742,246.032 165.200 M274.964 222.200 C 275.514 222.750,276.065 223.200,276.190 223.200 C 276.314 223.200,277.129 223.650,278.000 224.200 C 278.871 224.750,279.937 225.200,280.368 225.200 C 280.800 225.200,281.264 225.380,281.400 225.600 C 281.536 225.820,282.076 226.000,282.600 226.000 C 283.124 226.000,283.664 226.180,283.800 226.400 C 283.936 226.620,284.757 226.800,285.624 226.800 C 286.491 226.800,287.200 226.980,287.200 227.200 C 287.200 227.445,289.133 227.600,292.200 227.600 L 297.200 227.600 297.200 228.776 C 297.200 229.423,297.380 230.064,297.600 230.200 C 297.829 230.341,298.000 232.396,298.000 235.000 C 298.000 237.604,298.171 239.659,298.400 239.800 C 298.631 239.942,298.800 242.071,298.800 244.824 C 298.800 247.741,298.956 249.600,299.200 249.600 C 299.443 249.600,299.600 251.400,299.600 254.200 C 299.600 257.000,299.757 258.800,300.000 258.800 C 300.244 258.800,300.400 260.659,300.400 263.576 C 300.400 266.329,300.569 268.458,300.800 268.600 C 301.031 268.742,301.200 270.871,301.200 273.624 C 301.200 276.541,301.356 278.400,301.600 278.400 C 301.843 278.400,302.000 280.192,302.000 282.976 C 302.000 285.596,302.171 287.658,302.400 287.800 C 302.629 287.942,302.800 290.004,302.800 292.624 C 302.800 295.408,302.957 297.200,303.200 297.200 C 303.445 297.200,303.600 299.133,303.600 302.200 C 303.600 305.267,303.755 307.200,304.000 307.200 C 304.244 307.200,304.400 309.067,304.400 312.000 C 304.400 314.933,304.556 316.800,304.800 316.800 C 305.043 316.800,305.200 318.600,305.200 321.400 C 305.200 324.200,305.357 326.000,305.600 326.000 C 305.844 326.000,306.000 327.859,306.000 330.776 C 306.000 333.529,306.169 335.658,306.400 335.800 C 306.629 335.941,306.800 337.996,306.800 340.600 C 306.800 343.204,306.971 345.259,307.200 345.400 C 307.420 345.536,307.600 346.177,307.600 346.824 L 307.600 348.000 278.200 348.000 C 245.013 348.000,247.358 348.277,250.800 344.761 C 251.900 343.638,252.800 342.581,252.800 342.412 C 252.800 342.243,253.565 341.317,254.500 340.353 C 255.435 339.389,256.740 337.891,257.400 337.023 C 258.060 336.156,259.005 335.039,259.500 334.542 C 259.995 334.044,260.400 333.430,260.400 333.179 C 260.400 332.927,260.940 332.217,261.600 331.600 C 262.260 330.983,262.800 330.191,262.800 329.840 C 262.800 329.488,262.980 329.200,263.200 329.200 C 263.420 329.200,263.600 328.660,263.600 328.000 C 263.600 327.340,263.780 326.800,264.000 326.800 C 264.220 326.800,264.400 326.350,264.400 325.800 C 264.400 325.250,264.220 324.800,264.000 324.800 C 263.780 324.800,263.600 324.205,263.600 323.478 C 263.600 322.010,261.397 319.200,260.246 319.200 C 259.891 319.200,259.600 319.020,259.600 318.800 C 259.600 318.580,259.060 318.400,258.400 318.400 C 257.740 318.400,257.200 318.220,257.200 318.000 C 257.200 317.780,256.581 317.600,255.824 317.600 C 255.067 317.600,254.336 317.420,254.200 317.200 C 254.064 316.980,253.524 316.800,253.000 316.800 C 252.476 316.800,251.936 316.620,251.800 316.400 C 251.664 316.180,251.124 316.000,250.600 316.000 C 250.076 316.000,249.536 315.820,249.400 315.600 C 249.264 315.380,248.724 315.200,248.200 315.200 C 247.676 315.200,247.136 315.020,247.000 314.800 C 246.864 314.580,246.313 314.400,245.776 314.400 C 245.239 314.400,244.800 314.220,244.800 314.000 C 244.800 313.780,244.260 313.600,243.600 313.600 C 242.940 313.600,242.400 313.420,242.400 313.200 C 242.400 312.980,242.128 312.800,241.795 312.800 C 241.462 312.800,240.877 312.635,240.495 312.433 C 238.793 311.533,235.956 310.400,235.404 310.400 C 235.072 310.400,234.800 310.220,234.800 310.000 C 234.800 309.780,234.551 309.600,234.246 309.600 C 233.941 309.600,233.176 309.331,232.546 309.002 C 231.916 308.674,231.085 308.404,230.700 308.402 C 230.315 308.401,230.000 308.220,230.000 308.000 C 230.000 307.780,229.640 307.600,229.200 307.600 C 228.760 307.600,228.400 307.420,228.400 307.200 C 228.400 306.980,228.040 306.800,227.600 306.800 C 227.160 306.800,226.800 306.620,226.800 306.400 C 226.800 306.180,226.506 306.000,226.147 306.000 C 225.788 306.000,225.203 305.684,224.847 305.297 C 224.491 304.911,223.660 304.327,223.000 304.000 C 222.340 303.673,221.509 303.089,221.153 302.703 C 220.797 302.316,220.252 302.000,219.941 302.000 C 219.631 302.000,219.117 301.640,218.800 301.200 C 218.483 300.760,218.031 300.400,217.795 300.400 C 217.559 300.400,216.474 299.591,215.383 298.602 C 214.292 297.613,213.280 296.803,213.133 296.802 C 212.781 296.799,209.600 293.739,209.600 293.403 C 209.600 293.260,209.375 292.910,209.100 292.625 C 207.540 291.008,206.579 289.585,205.030 286.600 C 204.574 285.720,204.097 284.910,203.971 284.800 C 203.845 284.690,203.625 284.285,203.483 283.900 C 203.341 283.515,202.949 283.200,202.613 283.200 C 202.276 283.200,202.000 283.020,202.000 282.800 C 202.000 282.567,200.667 282.400,198.800 282.400 C 196.933 282.400,195.600 282.567,195.600 282.800 C 195.600 283.020,195.352 283.200,195.049 283.200 C 194.284 283.200,193.543 284.181,192.566 286.486 C 192.107 287.568,191.432 288.804,191.066 289.231 C 190.700 289.659,190.400 290.193,190.400 290.418 C 190.400 290.982,181.479 299.599,180.894 299.601 C 180.732 299.601,179.970 300.141,179.200 300.800 C 178.430 301.459,177.652 301.999,177.471 301.999 C 177.291 302.000,176.906 302.225,176.616 302.500 C 175.278 303.770,174.343 304.400,173.795 304.400 C 173.468 304.400,173.200 304.580,173.200 304.800 C 173.200 305.020,172.922 305.200,172.583 305.200 C 172.244 305.200,171.580 305.560,171.108 306.000 C 170.636 306.440,170.013 306.800,169.725 306.800 C 169.436 306.800,169.200 306.980,169.200 307.200 C 169.200 307.420,168.840 307.600,168.400 307.600 C 167.960 307.600,167.600 307.780,167.600 308.000 C 167.600 308.220,167.312 308.400,166.960 308.400 C 166.609 308.400,165.664 308.688,164.860 309.041 C 164.057 309.393,163.040 309.820,162.600 309.990 C 161.594 310.378,158.029 311.970,157.105 312.444 C 156.723 312.640,156.138 312.800,155.805 312.800 C 155.472 312.800,155.200 312.980,155.200 313.200 C 155.200 313.420,154.660 313.600,154.000 313.600 C 153.340 313.600,152.800 313.780,152.800 314.000 C 152.800 314.220,152.260 314.400,151.600 314.400 C 150.940 314.400,150.400 314.580,150.400 314.800 C 150.400 315.020,149.860 315.200,149.200 315.200 C 148.540 315.200,148.000 315.380,148.000 315.600 C 148.000 315.820,147.460 316.000,146.800 316.000 C 146.140 316.000,145.600 316.180,145.600 316.400 C 145.600 316.620,145.161 316.800,144.624 316.800 C 144.087 316.800,143.536 316.980,143.400 317.200 C 143.264 317.420,142.533 317.600,141.776 317.600 C 141.019 317.600,140.400 317.780,140.400 318.000 C 140.400 318.220,139.860 318.400,139.200 318.400 C 138.540 318.400,138.000 318.580,138.000 318.800 C 138.000 319.020,137.712 319.200,137.360 319.200 C 136.530 319.200,134.000 321.730,134.000 322.560 C 134.000 322.912,133.820 323.200,133.600 323.200 C 133.380 323.200,133.200 324.190,133.200 325.400 C 133.200 326.610,133.380 327.600,133.600 327.600 C 133.820 327.600,134.000 328.052,134.000 328.604 C 134.000 329.173,134.519 330.151,135.200 330.863 C 135.860 331.554,136.400 332.286,136.400 332.491 C 136.400 332.695,137.081 333.524,137.913 334.331 C 138.745 335.139,139.865 336.430,140.402 337.200 C 140.939 337.970,141.716 338.960,142.130 339.400 C 142.543 339.840,143.358 340.830,143.939 341.600 C 144.521 342.370,145.455 343.450,146.014 344.000 C 147.096 345.064,148.800 347.365,148.800 347.762 C 148.800 347.893,136.470 348.000,121.400 348.000 L 94.000 348.000 94.000 345.200 C 94.000 343.600,94.171 342.400,94.400 342.400 C 94.641 342.400,94.800 340.733,94.800 338.200 C 94.800 335.667,94.959 334.000,95.200 334.000 C 95.442 334.000,95.600 332.267,95.600 329.600 C 95.600 326.933,95.758 325.200,96.000 325.200 C 96.241 325.200,96.400 323.533,96.400 321.000 C 96.400 318.467,96.559 316.800,96.800 316.800 C 97.042 316.800,97.200 315.067,97.200 312.400 C 97.200 309.733,97.358 308.000,97.600 308.000 C 97.840 308.000,98.000 306.408,98.000 304.024 C 98.000 301.804,98.177 299.938,98.400 299.800 C 98.623 299.662,98.800 297.804,98.800 295.600 C 98.800 293.396,98.977 291.538,99.200 291.400 C 99.425 291.261,99.600 289.337,99.600 287.000 C 99.600 284.663,99.775 282.739,100.000 282.600 C 100.223 282.462,100.400 280.604,100.400 278.400 C 100.400 276.196,100.577 274.338,100.800 274.200 C 101.023 274.062,101.200 272.204,101.200 270.000 C 101.200 267.796,101.377 265.938,101.600 265.800 C 101.825 265.661,102.000 263.729,102.000 261.376 C 102.000 258.859,102.159 257.200,102.400 257.200 C 102.641 257.200,102.800 255.541,102.800 253.024 C 102.800 250.671,102.975 248.739,103.200 248.600 C 103.425 248.461,103.600 246.529,103.600 244.176 C 103.600 241.659,103.759 240.000,104.000 240.000 C 104.241 240.000,104.400 238.341,104.400 235.824 C 104.400 233.471,104.575 231.539,104.800 231.400 C 105.020 231.264,105.200 230.353,105.200 229.376 L 105.200 227.600 110.200 227.600 C 113.267 227.600,115.200 227.445,115.200 227.200 C 115.200 226.980,115.999 226.800,116.976 226.800 C 117.953 226.800,118.864 226.620,119.000 226.400 C 119.136 226.180,119.599 226.000,120.029 226.000 C 120.459 226.000,121.123 225.849,121.505 225.664 C 124.566 224.186,126.701 222.946,127.247 222.330 C 128.170 221.288,129.414 221.538,131.119 223.106 C 131.859 223.786,135.004 225.200,135.778 225.200 C 136.120 225.200,136.400 225.380,136.400 225.600 C 136.400 225.820,136.940 226.000,137.600 226.000 C 138.260 226.000,138.800 226.180,138.800 226.400 C 138.800 226.620,139.700 226.800,140.800 226.800 C 141.900 226.800,142.800 226.980,142.800 227.200 C 142.800 227.441,144.467 227.600,147.000 227.600 C 149.533 227.600,151.200 227.441,151.200 227.200 C 151.200 226.980,152.100 226.800,153.200 226.800 C 154.300 226.800,155.200 226.620,155.200 226.400 C 155.200 226.180,155.539 226.000,155.954 226.000 C 156.369 226.000,157.224 225.731,157.854 225.402 C 158.484 225.074,159.315 224.804,159.700 224.802 C 160.085 224.801,160.400 224.620,160.400 224.400 C 160.400 224.180,160.636 224.000,160.925 224.000 C 161.213 224.000,161.836 223.640,162.308 223.200 C 162.780 222.760,163.444 222.400,163.783 222.400 C 164.122 222.400,164.400 222.220,164.400 222.000 C 164.400 221.328,165.584 221.554,166.492 222.400 C 166.964 222.840,167.587 223.200,167.875 223.200 C 168.164 223.200,168.400 223.347,168.400 223.526 C 168.400 224.018,171.092 225.200,172.214 225.200 C 172.756 225.200,173.200 225.380,173.200 225.600 C 173.200 225.820,173.740 226.000,174.400 226.000 C 175.060 226.000,175.600 226.180,175.600 226.400 C 175.600 226.620,176.309 226.800,177.176 226.800 C 178.043 226.800,178.864 226.980,179.000 227.200 C 179.139 227.425,181.071 227.600,183.424 227.600 C 185.941 227.600,187.600 227.441,187.600 227.200 C 187.600 226.980,188.410 226.800,189.400 226.800 C 190.390 226.800,191.200 226.620,191.200 226.400 C 191.200 226.180,191.639 226.000,192.176 226.000 C 192.713 226.000,193.264 225.820,193.400 225.600 C 193.536 225.380,193.990 225.200,194.410 225.200 C 195.358 225.200,198.000 223.968,198.000 223.526 C 198.000 223.347,198.236 223.200,198.525 223.200 C 198.813 223.200,199.436 222.840,199.908 222.400 C 200.768 221.599,202.000 221.317,202.000 221.921 C 202.000 222.098,202.897 222.683,203.994 223.221 C 205.090 223.760,205.990 224.319,205.994 224.465 C 205.997 224.611,206.719 224.851,207.598 225.000 C 208.477 225.148,209.297 225.434,209.422 225.635 C 209.546 225.836,210.177 226.000,210.824 226.000 C 211.471 226.000,212.000 226.180,212.000 226.400 C 212.000 226.652,214.659 226.800,219.176 226.800 C 223.529 226.800,226.450 226.643,226.600 226.400 C 226.736 226.180,227.377 226.000,228.024 226.000 C 228.671 226.000,229.200 225.820,229.200 225.600 C 229.200 225.380,229.656 225.200,230.213 225.200 C 231.371 225.200,234.903 223.508,236.128 222.367 C 236.581 221.945,237.088 221.600,237.257 221.600 C 237.818 221.600,239.600 222.524,239.600 222.816 C 239.600 222.974,240.140 223.327,240.800 223.600 C 241.460 223.873,242.000 224.247,242.000 224.430 C 242.000 224.614,242.630 224.882,243.400 225.026 C 244.170 225.171,244.800 225.449,244.800 225.645 C 244.800 225.840,245.340 226.000,246.000 226.000 C 246.660 226.000,247.200 226.180,247.200 226.400 C 247.200 226.620,248.100 226.800,249.200 226.800 C 250.300 226.800,251.200 226.980,251.200 227.200 C 251.200 227.441,252.867 227.600,255.400 227.600 C 257.933 227.600,259.600 227.441,259.600 227.200 C 259.600 226.980,260.500 226.800,261.600 226.800 C 262.700 226.800,263.600 226.620,263.600 226.400 C 263.600 226.180,264.140 226.000,264.800 226.000 C 265.460 226.000,266.000 225.843,266.000 225.651 C 266.000 225.459,266.720 225.187,267.600 225.046 C 268.480 224.906,269.200 224.613,269.200 224.395 C 269.200 224.178,269.425 223.996,269.700 223.990 C 269.975 223.985,271.010 223.367,272.000 222.617 C 272.990 221.867,273.837 221.242,273.882 221.227 C 273.927 221.212,274.414 221.650,274.964 222.200 M216.400 317.600 C 216.717 318.040,217.297 318.400,217.688 318.400 C 218.080 318.400,218.400 318.580,218.400 318.800 C 218.400 319.020,218.760 319.200,219.200 319.200 C 219.640 319.200,220.000 319.380,220.000 319.600 C 220.000 319.820,220.360 320.000,220.800 320.000 C 221.240 320.000,221.600 320.180,221.600 320.400 C 221.600 320.620,221.960 320.800,222.400 320.800 C 222.840 320.800,223.200 320.980,223.200 321.200 C 223.200 321.420,223.545 321.600,223.967 321.600 C 224.388 321.600,224.793 321.736,224.867 321.902 C 225.117 322.469,230.197 324.817,231.700 325.061 C 232.525 325.195,233.200 325.461,233.200 325.652 C 233.200 325.844,233.560 326.000,234.000 326.000 C 234.440 326.000,234.800 326.180,234.800 326.400 C 234.800 326.620,235.340 326.800,236.000 326.800 C 236.660 326.800,237.200 326.980,237.200 327.200 C 237.200 327.420,237.740 327.600,238.400 327.600 C 239.060 327.600,239.600 327.780,239.600 328.000 C 239.600 328.220,240.140 328.400,240.800 328.400 C 241.460 328.400,242.000 328.580,242.000 328.800 C 242.000 329.020,242.450 329.200,243.000 329.200 C 244.857 329.200,244.385 330.165,240.500 334.312 C 239.565 335.311,238.800 336.287,238.800 336.483 C 238.800 336.679,237.540 338.081,236.000 339.600 C 234.460 341.119,233.200 342.473,233.200 342.609 C 233.200 343.762,231.951 343.987,230.911 343.022 C 230.304 342.460,229.671 342.000,229.504 342.000 C 229.337 342.000,229.200 341.757,229.200 341.459 C 229.200 341.162,228.660 340.354,228.000 339.663 C 227.340 338.972,226.800 338.202,226.800 337.951 C 226.800 337.699,226.485 337.202,226.100 336.845 C 225.715 336.488,224.874 335.207,224.232 333.998 C 223.589 332.789,222.957 331.710,222.826 331.600 C 222.696 331.490,222.144 330.500,221.600 329.400 C 221.056 328.300,220.514 327.310,220.395 327.200 C 219.927 326.765,216.800 320.303,216.800 319.769 C 216.800 319.456,216.620 319.200,216.400 319.200 C 216.180 319.200,216.000 318.840,216.000 318.400 C 216.000 317.960,215.820 317.600,215.600 317.600 C 215.380 317.600,215.200 317.420,215.200 317.200 C 215.200 316.548,215.782 316.742,216.400 317.600 M180.000 318.400 C 180.000 318.840,179.820 319.200,179.600 319.200 C 179.380 319.200,179.200 319.560,179.200 320.000 C 179.200 320.440,179.020 320.800,178.800 320.800 C 178.580 320.800,178.400 321.160,178.400 321.600 C 178.400 322.040,178.220 322.400,178.000 322.400 C 177.780 322.400,177.600 322.760,177.600 323.200 C 177.600 323.640,177.420 324.000,177.200 324.000 C 176.980 324.000,176.800 324.234,176.800 324.519 C 176.800 324.805,176.145 326.290,175.345 327.819 C 174.545 329.349,173.690 331.004,173.445 331.497 C 173.200 331.990,172.865 332.395,172.700 332.397 C 172.535 332.399,172.400 332.720,172.400 333.112 C 172.400 333.503,172.040 334.083,171.600 334.400 C 171.160 334.717,170.800 335.257,170.800 335.600 C 170.800 335.943,170.440 336.483,170.000 336.800 C 169.560 337.117,169.200 337.615,169.200 337.906 C 169.200 338.198,168.764 338.872,168.231 339.405 C 167.698 339.938,167.143 340.695,166.998 341.087 C 166.065 343.606,162.000 344.854,162.000 342.622 C 162.000 342.465,161.325 341.676,160.500 340.869 C 159.675 340.061,158.760 338.933,158.466 338.362 C 158.172 337.792,157.227 336.554,156.366 335.612 C 155.505 334.670,154.800 333.748,154.800 333.563 C 154.800 333.378,154.170 332.597,153.400 331.827 C 151.644 330.070,151.577 329.200,153.200 329.200 C 153.860 329.200,154.400 329.020,154.400 328.800 C 154.400 328.580,154.940 328.400,155.600 328.400 C 156.260 328.400,156.800 328.220,156.800 328.000 C 156.800 327.780,157.250 327.600,157.800 327.600 C 158.350 327.600,158.800 327.420,158.800 327.200 C 158.800 326.980,159.340 326.800,160.000 326.800 C 160.660 326.800,161.200 326.620,161.200 326.400 C 161.200 326.180,161.560 326.000,162.000 326.000 C 162.440 326.000,162.800 325.820,162.800 325.600 C 162.800 325.380,163.295 325.199,163.900 325.198 C 164.505 325.196,165.516 324.926,166.146 324.598 C 166.776 324.269,167.541 324.000,167.846 324.000 C 168.151 324.000,168.400 323.820,168.400 323.600 C 168.400 323.380,168.625 323.201,168.900 323.203 C 169.653 323.208,176.000 319.935,176.000 319.542 C 176.000 319.354,176.360 319.200,176.800 319.200 C 177.240 319.200,177.600 319.020,177.600 318.800 C 177.600 318.580,177.960 318.400,178.400 318.400 C 178.840 318.400,179.200 318.220,179.200 318.000 C 179.200 317.780,179.380 317.600,179.600 317.600 C 179.820 317.600,180.000 317.960,180.000 318.400 " stroke="none" fill="#040404" fill-rule="evenodd"></path><path id="path1" d="" stroke="none" fill="#080404" fill-rule="evenodd"></path><path id="path2" d="" stroke="none" fill="#080404" fill-rule="evenodd"></path><path id="path3" d="" stroke="none" fill="#080404" fill-rule="evenodd"></path><path id="path4" d="" stroke="none" fill="#080404" fill-rule="evenodd"></path></g></svg>