<svg id="svg" version="1.1" xmlns="http://www.w3.org/2000/svg" xmlns:xlink="http://www.w3.org/1999/xlink" width="400" height="400" viewBox="0, 0, 400,400"><g id="svgg"><path id="path0" d="M120.200 75.686 C 118.918 76.426,118.400 77.084,118.400 77.971 C 118.400 78.427,118.220 78.800,118.000 78.800 C 117.780 78.800,117.600 79.329,117.600 79.976 C 117.600 80.623,117.780 81.264,118.000 81.400 C 118.220 81.536,118.400 81.919,118.400 82.252 C 118.400 83.899,120.662 84.800,124.795 84.800 L 128.400 84.800 128.400 202.400 C 128.400 280.533,128.534 320.000,128.800 320.000 C 129.020 320.000,129.200 320.358,129.200 320.795 C 129.200 322.324,132.135 325.200,133.696 325.200 C 134.303 325.200,134.800 325.380,134.800 325.600 C 134.800 326.394,255.426 326.125,256.714 325.328 C 258.265 324.368,258.800 323.603,258.800 322.347 C 258.800 321.742,258.980 321.136,259.200 321.000 C 259.465 320.836,259.600 280.996,259.600 202.776 L 259.600 84.800 263.600 84.800 C 266.000 84.800,267.600 84.640,267.600 84.400 C 267.600 84.180,267.887 84.000,268.237 84.000 C 268.588 84.000,268.969 83.640,269.084 83.200 C 269.199 82.760,269.452 82.400,269.647 82.400 C 271.253 82.400,269.606 76.608,267.726 75.647 C 266.454 74.996,121.328 75.035,120.200 75.686 M249.600 200.800 L 249.600 316.800 193.800 316.800 L 138.000 316.800 138.000 200.800 L 138.000 84.800 193.800 84.800 L 249.600 84.800 249.600 200.800 M266.900 100.610 C 265.540 102.062,265.612 105.748,267.033 107.400 L 268.065 108.600 303.832 108.708 L 339.600 108.817 339.600 212.808 L 339.600 316.800 303.900 316.813 C 276.127 316.823,268.067 316.935,267.600 317.321 C 266.512 318.219,266.000 319.562,266.000 321.519 C 266.000 323.414,266.287 323.942,268.164 325.500 C 268.938 326.142,343.004 326.241,343.400 325.600 C 343.536 325.380,343.952 325.200,344.324 325.200 C 345.123 325.199,347.200 323.505,347.200 322.853 C 347.200 322.604,347.380 322.400,347.600 322.400 C 347.820 322.400,348.000 321.860,348.000 321.200 C 348.000 320.540,348.180 320.000,348.400 320.000 C 348.666 320.000,348.800 284.548,348.800 214.445 L 348.800 108.890 351.587 108.733 C 356.723 108.443,358.849 103.592,355.365 100.108 C 354.960 99.703,346.021 99.605,311.329 99.624 L 267.800 99.649 266.900 100.610 M151.200 102.400 C 151.200 102.620,150.905 102.800,150.544 102.800 C 148.891 102.800,148.826 103.464,148.813 120.514 C 148.799 137.690,148.911 138.800,150.646 138.800 C 150.951 138.800,151.200 138.980,151.200 139.200 C 151.200 139.802,182.590 139.741,183.718 139.137 C 184.955 138.475,185.600 137.753,185.600 137.029 C 185.600 136.683,185.780 136.400,186.000 136.400 C 186.260 136.400,186.400 130.933,186.400 120.800 C 186.400 110.667,186.260 105.200,186.000 105.200 C 185.780 105.200,185.600 104.922,185.600 104.582 C 185.600 104.242,185.158 103.522,184.618 102.982 L 183.636 102.000 167.418 102.000 C 156.873 102.000,151.200 102.140,151.200 102.400 M204.400 102.353 C 204.400 102.548,204.040 102.801,203.600 102.916 C 203.160 103.031,202.800 103.412,202.800 103.763 C 202.800 104.113,202.620 104.400,202.400 104.400 C 202.140 104.400,202.000 110.071,202.000 120.613 L 202.000 136.827 203.387 138.213 L 204.773 139.600 220.747 139.600 L 236.720 139.600 238.160 138.160 L 239.600 136.720 239.600 120.747 L 239.600 104.773 238.213 103.387 L 236.827 102.000 220.613 102.000 C 211.498 102.000,204.400 102.155,204.400 102.353 M176.400 120.600 L 176.400 130.000 167.400 130.000 L 158.400 130.000 158.400 120.600 L 158.400 111.200 167.400 111.200 L 176.400 111.200 176.400 120.600 M230.000 120.600 L 230.000 130.000 220.600 130.000 L 211.200 130.000 211.200 120.600 L 211.200 111.200 220.600 111.200 L 230.000 111.200 230.000 120.600 M39.300 129.816 C 37.986 131.191,37.300 135.600,38.400 135.600 C 38.620 135.600,38.800 135.849,38.800 136.154 C 38.800 137.334,40.670 138.000,43.986 138.000 L 47.200 138.000 47.200 228.176 C 47.200 287.863,47.335 318.436,47.600 318.600 C 47.820 318.736,48.000 319.185,48.000 319.598 C 48.000 320.806,52.192 324.725,53.810 325.028 C 54.574 325.172,55.200 325.449,55.200 325.645 C 55.200 326.244,117.911 326.102,118.636 325.500 C 120.553 323.908,120.800 323.433,120.800 321.325 C 120.800 320.156,120.620 319.200,120.400 319.200 C 120.180 319.200,120.000 318.905,120.000 318.544 C 120.000 316.819,120.130 316.826,88.570 316.813 L 58.539 316.800 57.670 315.874 L 56.800 314.948 56.800 226.474 L 56.800 138.000 88.246 138.000 L 119.692 138.000 121.046 136.522 C 122.396 135.048,123.064 131.600,122.000 131.600 C 121.780 131.600,121.600 131.306,121.600 130.947 C 121.600 130.587,121.105 129.867,120.500 129.347 L 119.400 128.401 80.000 128.428 L 40.600 128.455 39.300 129.816 M268.400 134.400 C 268.400 134.620,268.040 134.800,267.600 134.800 C 267.067 134.800,266.800 135.067,266.800 135.600 C 266.800 136.040,266.620 136.400,266.400 136.400 C 265.830 136.400,265.904 140.034,266.500 141.317 C 266.775 141.909,267.315 142.395,267.700 142.397 C 268.085 142.399,268.400 142.580,268.400 142.800 C 268.400 143.040,270.000 143.200,272.400 143.200 L 276.400 143.200 276.400 151.000 L 276.400 158.800 273.528 158.800 C 268.080 158.800,266.001 160.268,266.000 164.118 C 266.000 166.764,267.139 168.400,268.982 168.400 C 269.542 168.400,270.000 168.580,270.000 168.800 C 270.000 169.364,280.864 169.320,282.281 168.750 C 286.580 167.022,286.400 167.793,286.400 151.139 C 286.400 142.113,286.259 137.200,286.000 137.200 C 285.780 137.200,285.600 136.922,285.600 136.582 C 285.600 134.393,284.143 134.000,276.018 134.000 C 271.206 134.000,268.400 134.147,268.400 134.400 M300.400 134.400 C 300.400 134.620,300.040 134.800,299.600 134.800 C 299.067 134.800,298.800 135.067,298.800 135.600 C 298.800 136.040,298.620 136.400,298.400 136.400 C 298.140 136.400,298.000 141.673,298.000 151.418 L 298.000 166.436 298.982 167.418 C 299.522 167.958,300.422 168.400,300.982 168.400 C 301.542 168.400,302.000 168.580,302.000 168.800 C 302.000 169.059,306.667 169.200,315.200 169.200 C 323.733 169.200,328.400 169.059,328.400 168.800 C 328.400 168.580,328.858 168.400,329.418 168.400 C 329.978 168.400,330.878 167.958,331.418 167.418 L 332.400 166.436 332.400 151.165 L 332.400 135.893 331.300 134.947 L 330.200 134.001 315.300 134.000 C 305.633 134.000,300.400 134.140,300.400 134.400 M323.200 151.000 L 323.200 158.800 315.400 158.800 L 307.600 158.800 307.600 151.000 L 307.600 143.200 315.400 143.200 L 323.200 143.200 323.200 151.000 M151.200 151.600 C 151.200 151.820,150.885 152.001,150.500 152.003 C 148.932 152.010,148.799 153.458,148.813 170.380 C 148.822 182.668,148.946 186.745,149.321 187.200 C 150.602 188.752,151.144 188.800,167.495 188.800 L 183.400 188.799 184.500 187.853 C 185.105 187.333,185.600 186.613,185.600 186.253 C 185.600 185.894,185.780 185.600,186.000 185.600 C 186.260 185.600,186.400 180.133,186.400 170.000 C 186.400 159.867,186.260 154.400,186.000 154.400 C 185.780 154.400,185.600 154.117,185.600 153.771 C 185.600 153.080,185.031 152.463,183.690 151.700 C 182.569 151.063,151.200 150.966,151.200 151.600 M203.300 152.616 L 202.000 153.977 202.000 170.189 C 202.000 179.303,202.155 186.400,202.353 186.400 C 202.548 186.400,202.801 186.760,202.916 187.200 C 203.031 187.640,203.412 188.000,203.763 188.000 C 204.113 188.000,204.400 188.180,204.400 188.400 C 204.400 188.660,210.062 188.800,220.587 188.800 L 236.773 188.800 238.187 187.387 L 239.600 185.973 239.600 170.027 L 239.600 154.080 238.160 152.640 L 236.720 151.200 220.660 151.227 L 204.600 151.255 203.300 152.616 M62.900 155.410 C 61.950 156.424,61.424 182.400,62.353 182.400 C 62.548 182.400,62.801 182.760,62.916 183.200 C 63.031 183.640,63.412 184.000,63.763 184.000 C 64.113 184.000,64.400 184.180,64.400 184.400 C 64.400 184.658,68.840 184.800,76.920 184.800 C 89.970 184.800,91.590 184.612,91.597 183.100 C 91.599 182.715,91.780 182.400,92.000 182.400 C 92.948 182.400,92.496 156.516,91.528 155.403 L 90.656 154.400 77.228 154.424 L 63.800 154.449 62.900 155.410 M102.905 155.508 C 102.021 156.587,102.011 156.747,102.005 169.340 L 102.000 182.080 103.360 183.440 L 104.720 184.800 111.400 184.800 L 118.080 184.800 119.440 183.440 C 120.809 182.071,121.544 177.600,120.400 177.600 C 120.180 177.600,120.000 177.363,120.000 177.074 C 120.000 176.067,117.312 175.200,114.186 175.200 L 111.200 175.200 111.200 169.400 L 111.200 163.600 115.200 163.600 C 117.600 163.600,119.200 163.440,119.200 163.200 C 119.200 162.980,119.483 162.800,119.829 162.800 C 120.637 162.800,121.600 161.837,121.600 161.029 C 121.600 160.683,121.780 160.400,122.000 160.400 C 122.568 160.400,122.497 157.762,121.900 156.695 C 120.566 154.308,120.962 154.399,112.038 154.408 L 103.800 154.415 102.905 155.508 M176.400 169.800 L 176.400 179.200 167.400 179.200 L 158.400 179.200 158.400 169.800 L 158.400 160.400 167.400 160.400 L 176.400 160.400 176.400 169.800 M230.000 169.800 L 230.000 179.200 220.600 179.200 L 211.200 179.200 211.200 169.800 L 211.200 160.400 220.600 160.400 L 230.000 160.400 230.000 169.800 M83.200 169.400 L 83.200 175.200 77.400 175.200 L 71.600 175.200 71.600 169.400 L 71.600 163.600 77.400 163.600 L 83.200 163.600 83.200 169.400 M268.400 179.553 C 268.400 179.748,268.040 180.001,267.600 180.116 C 267.160 180.231,266.800 180.612,266.800 180.963 C 266.800 181.313,266.620 181.600,266.400 181.600 C 266.178 181.600,266.000 182.667,266.000 184.000 C 266.000 185.320,266.159 186.400,266.353 186.400 C 266.548 186.400,266.801 186.760,266.916 187.200 C 267.031 187.640,267.412 188.000,267.763 188.000 C 268.113 188.000,268.400 188.180,268.400 188.400 C 268.400 188.640,270.000 188.800,272.400 188.800 L 276.400 188.800 276.400 196.600 L 276.400 204.400 272.800 204.400 C 270.667 204.400,269.200 204.563,269.200 204.800 C 269.200 205.020,268.922 205.200,268.582 205.200 C 266.121 205.200,264.958 210.594,266.982 212.618 C 267.522 213.158,268.422 213.600,268.982 213.600 C 269.542 213.600,270.000 213.780,270.000 214.000 C 270.000 214.249,272.333 214.400,276.200 214.400 C 280.067 214.400,282.400 214.249,282.400 214.000 C 282.400 213.780,282.822 213.600,283.338 213.600 C 284.276 213.600,284.960 212.987,285.900 211.305 C 286.536 210.167,286.632 182.400,286.000 182.400 C 285.780 182.400,285.600 182.106,285.600 181.747 C 285.600 179.647,283.901 179.201,275.900 179.200 C 271.775 179.200,268.400 179.359,268.400 179.553 M300.400 179.553 C 300.400 179.748,300.040 180.001,299.600 180.116 C 299.160 180.231,298.800 180.612,298.800 180.963 C 298.800 181.313,298.620 181.600,298.400 181.600 C 298.140 181.600,298.000 186.873,298.000 196.618 L 298.000 211.636 298.982 212.618 C 299.522 213.158,300.422 213.600,300.982 213.600 C 301.542 213.600,302.000 213.780,302.000 214.000 C 302.000 214.259,306.725 214.400,315.376 214.400 C 323.863 214.400,328.843 214.254,329.000 214.000 C 329.136 213.780,329.515 213.600,329.842 213.600 C 330.169 213.600,330.878 213.158,331.418 212.618 L 332.400 211.636 332.400 196.390 C 332.400 180.234,332.468 180.825,330.490 179.700 C 329.445 179.106,300.400 178.964,300.400 179.553 M323.200 196.600 L 323.200 204.400 315.400 204.400 L 307.600 204.400 307.600 196.600 L 307.600 188.800 315.400 188.800 L 323.200 188.800 323.200 196.600 M63.901 193.137 C 63.296 193.501,62.801 194.025,62.801 194.300 C 62.800 194.575,62.620 194.800,62.400 194.800 C 62.141 194.800,62.000 199.448,62.000 207.945 L 62.000 221.091 63.055 222.145 L 64.109 223.200 77.382 223.200 L 90.656 223.200 91.528 222.197 C 92.496 221.084,92.949 194.800,92.000 194.800 C 91.780 194.800,91.600 194.604,91.600 194.364 C 91.600 192.331,67.039 191.243,63.901 193.137 M103.450 193.728 L 102.000 195.057 102.000 208.128 C 102.000 216.576,102.141 221.200,102.400 221.200 C 102.620 221.200,102.800 221.405,102.800 221.656 C 102.800 222.949,104.167 223.175,112.071 223.187 L 119.942 223.200 121.171 221.709 C 122.405 220.212,122.981 216.800,122.000 216.800 C 121.780 216.800,121.600 216.473,121.600 216.074 C 121.600 214.643,118.717 213.600,114.762 213.600 L 111.200 213.600 111.200 207.800 L 111.200 202.000 114.800 202.000 C 116.780 202.000,118.400 201.841,118.400 201.647 C 118.400 201.452,118.760 201.199,119.200 201.084 C 119.640 200.969,120.000 200.588,120.000 200.237 C 120.000 199.887,120.180 199.600,120.400 199.600 C 121.568 199.600,120.803 195.230,119.387 193.813 L 117.973 192.400 111.437 192.400 L 104.901 192.400 103.450 193.728 M149.700 200.610 L 148.800 201.571 148.800 218.004 L 148.800 234.436 149.700 235.318 C 151.498 237.080,152.644 237.200,167.705 237.200 C 176.772 237.200,182.043 237.055,182.200 236.800 C 182.336 236.580,182.859 236.400,183.362 236.400 C 184.278 236.400,184.965 235.779,185.900 234.105 C 187.589 231.083,186.338 200.400,184.526 200.400 C 184.237 200.400,184.000 200.220,184.000 200.000 C 184.000 199.739,178.183 199.609,167.300 199.624 L 150.600 199.649 149.700 200.610 M202.905 200.708 C 202.012 201.798,202.011 201.824,202.006 218.000 L 202.001 234.200 202.947 235.300 C 203.534 235.982,204.293 236.400,204.947 236.400 C 205.526 236.400,206.000 236.580,206.000 236.800 C 206.000 237.059,211.125 237.200,220.576 237.200 C 229.863 237.200,235.243 237.055,235.400 236.800 C 235.536 236.580,236.042 236.394,236.524 236.387 C 237.650 236.371,238.800 235.497,238.800 234.656 C 238.800 234.295,238.980 234.000,239.200 234.000 C 239.460 234.000,239.600 228.400,239.600 218.000 C 239.600 207.600,239.460 202.000,239.200 202.000 C 238.980 202.000,238.800 201.705,238.800 201.344 C 238.800 199.686,238.166 199.626,220.600 199.620 L 203.800 199.615 202.905 200.708 M83.200 207.800 L 83.200 213.600 77.400 213.600 L 71.600 213.600 71.600 207.800 L 71.600 202.000 77.400 202.000 L 83.200 202.000 83.200 207.800 M176.400 217.800 L 176.400 226.800 167.400 226.800 L 158.400 226.800 158.400 217.800 L 158.400 208.800 167.400 208.800 L 176.400 208.800 176.400 217.800 M230.000 217.800 L 230.000 226.800 220.600 226.800 L 211.200 226.800 211.200 217.800 L 211.200 208.800 220.600 208.800 L 230.000 208.800 230.000 217.800 M268.624 223.724 C 265.749 225.488,264.971 229.002,266.947 231.300 C 267.869 232.372,268.002 232.400,272.147 232.400 L 276.400 232.400 276.400 239.800 L 276.400 247.200 272.400 247.200 C 270.000 247.200,268.400 247.360,268.400 247.600 C 268.400 247.820,268.113 248.000,267.763 248.000 C 267.412 248.000,267.031 248.360,266.916 248.800 C 266.801 249.240,266.548 249.600,266.353 249.600 C 266.159 249.600,266.000 250.680,266.000 252.000 C 266.000 253.320,266.159 254.400,266.353 254.400 C 266.548 254.400,266.801 254.760,266.916 255.200 C 267.031 255.640,267.412 256.000,267.763 256.000 C 268.113 256.000,268.400 256.180,268.400 256.400 C 268.400 256.652,271.166 256.800,275.900 256.800 C 283.901 256.799,285.600 256.353,285.600 254.253 C 285.600 253.894,285.780 253.600,286.000 253.600 C 286.259 253.600,286.400 248.800,286.400 240.000 C 286.400 231.200,286.259 226.400,286.000 226.400 C 285.780 226.400,285.600 226.117,285.600 225.771 C 285.600 224.963,284.637 224.000,283.829 224.000 C 283.483 224.000,283.200 223.820,283.200 223.600 C 283.200 223.002,269.611 223.117,268.624 223.724 M300.624 223.724 C 300.196 223.986,299.431 224.597,298.924 225.082 L 298.000 225.964 298.000 240.182 C 298.000 248.142,298.156 254.400,298.353 254.400 C 298.548 254.400,298.801 254.760,298.916 255.200 C 299.031 255.640,299.412 256.000,299.763 256.000 C 300.113 256.000,300.400 256.180,300.400 256.400 C 300.400 257.001,329.391 256.940,330.518 256.337 C 332.446 255.305,332.401 255.697,332.387 240.129 C 332.374 224.752,332.293 224.000,330.656 224.000 C 330.295 224.000,330.000 223.820,330.000 223.600 C 330.000 222.988,301.627 223.107,300.624 223.724 M66.000 231.200 C 66.000 231.420,65.542 231.600,64.982 231.600 C 64.422 231.600,63.522 232.042,62.982 232.582 L 62.000 233.564 62.000 246.000 L 62.000 258.436 62.982 259.418 L 63.964 260.400 77.200 260.400 L 90.436 260.400 91.418 259.418 L 92.400 258.436 92.400 246.021 C 92.400 232.381,92.257 231.600,89.751 231.600 C 89.254 231.600,88.736 231.420,88.600 231.200 C 88.445 230.949,84.196 230.800,77.176 230.800 C 69.992 230.800,66.000 230.943,66.000 231.200 M106.000 231.200 C 106.000 231.420,105.526 231.600,104.947 231.600 C 104.293 231.600,103.534 232.018,102.947 232.700 L 102.001 233.800 102.000 246.100 C 102.000 254.034,102.142 258.400,102.400 258.400 C 102.620 258.400,102.800 258.605,102.800 258.856 C 102.800 260.145,104.170 260.375,111.946 260.387 L 119.692 260.400 121.046 258.922 C 122.386 257.459,123.031 254.400,122.000 254.400 C 121.780 254.400,121.600 254.117,121.600 253.771 C 121.600 253.053,120.666 252.000,120.029 252.000 C 119.793 252.000,119.600 251.820,119.600 251.600 C 119.600 251.359,117.933 251.200,115.400 251.200 L 111.200 251.200 111.200 246.200 L 111.200 241.200 114.616 241.200 C 119.783 241.200,122.400 239.429,122.400 235.933 C 122.400 233.946,120.755 231.600,119.362 231.600 C 118.859 231.600,118.336 231.420,118.200 231.200 C 118.053 230.962,115.529 230.800,111.976 230.800 C 108.259 230.800,106.000 230.951,106.000 231.200 M323.200 239.800 L 323.200 247.200 315.400 247.200 L 307.600 247.200 307.600 239.800 L 307.600 232.400 315.400 232.400 L 323.200 232.400 323.200 239.800 M83.200 246.200 L 83.200 251.200 77.400 251.200 L 71.600 251.200 71.600 246.200 L 71.600 241.200 77.400 241.200 L 83.200 241.200 83.200 246.200 M168.700 257.747 L 167.600 258.693 167.600 283.274 L 167.600 307.856 168.603 308.728 C 169.677 309.661,174.800 310.052,174.800 309.200 C 174.800 308.980,175.070 308.800,175.400 308.800 C 175.733 308.800,176.000 308.444,176.000 308.000 C 176.000 307.560,176.180 307.200,176.400 307.200 C 176.661 307.200,176.800 300.067,176.800 286.600 L 176.800 266.000 194.000 266.000 L 211.200 266.000 211.200 286.700 L 211.201 307.400 212.147 308.500 C 213.018 309.512,213.325 309.600,216.000 309.600 C 218.675 309.600,218.982 309.512,219.853 308.500 L 220.799 307.400 220.800 283.300 C 220.800 269.621,220.647 259.200,220.447 259.200 C 220.252 259.200,219.999 258.840,219.884 258.400 C 219.769 257.960,219.388 257.600,219.037 257.600 C 218.687 257.600,218.400 257.420,218.400 257.200 C 218.400 256.938,210.034 256.800,194.100 256.800 L 169.800 256.801 168.700 257.747 M270.000 263.200 C 270.000 263.420,269.542 263.600,268.982 263.600 C 268.422 263.600,267.522 264.042,266.982 264.582 C 264.927 266.636,266.089 272.400,268.558 272.400 C 268.885 272.400,269.264 272.580,269.400 272.800 C 269.536 273.020,271.167 273.200,273.024 273.200 L 276.400 273.200 276.400 280.200 L 276.400 287.200 272.587 287.200 L 268.773 287.200 267.387 288.587 C 265.591 290.382,265.388 293.487,266.947 295.300 L 267.893 296.400 275.765 296.400 C 287.045 296.400,286.400 297.407,286.400 279.800 C 286.400 270.135,286.271 266.559,285.900 265.895 C 284.965 264.221,284.278 263.600,283.362 263.600 C 282.859 263.600,282.336 263.420,282.200 263.200 C 282.053 262.962,279.529 262.800,275.976 262.800 C 272.259 262.800,270.000 262.951,270.000 263.200 M302.000 263.200 C 302.000 263.420,301.542 263.600,300.982 263.600 C 300.422 263.600,299.522 264.042,298.982 264.582 L 298.000 265.564 298.000 280.000 L 298.000 294.436 298.982 295.418 L 299.964 296.400 315.200 296.400 L 330.436 296.400 331.418 295.418 L 332.400 294.436 332.400 280.000 L 332.400 265.564 331.418 264.582 C 330.878 264.042,330.169 263.600,329.842 263.600 C 329.515 263.600,329.136 263.420,329.000 263.200 C 328.843 262.946,323.863 262.800,315.376 262.800 C 306.725 262.800,302.000 262.941,302.000 263.200 M63.450 265.728 L 62.000 267.057 62.000 279.947 L 62.000 292.836 62.982 293.818 C 63.522 294.358,64.242 294.800,64.582 294.800 C 64.922 294.800,65.200 294.980,65.200 295.200 C 65.200 295.458,69.533 295.600,77.400 295.600 C 85.267 295.600,89.600 295.458,89.600 295.200 C 89.600 294.980,89.948 294.800,90.373 294.800 C 90.798 294.800,91.260 294.440,91.400 294.000 C 91.540 293.560,91.822 293.200,92.027 293.200 C 92.250 293.200,92.400 287.897,92.400 280.000 C 92.400 272.103,92.250 266.800,92.027 266.800 C 91.822 266.800,91.540 266.440,91.400 266.000 C 91.260 265.560,90.888 265.200,90.573 265.200 C 90.258 265.200,90.000 265.020,90.000 264.800 C 90.000 264.542,85.550 264.400,77.450 264.400 L 64.901 264.400 63.450 265.728 M103.478 265.754 L 102.000 267.108 102.000 279.972 L 102.000 292.836 102.982 293.818 C 103.522 294.358,104.242 294.800,104.582 294.800 C 104.922 294.800,105.200 294.980,105.200 295.200 C 105.200 295.449,107.533 295.600,111.400 295.600 C 115.267 295.600,117.600 295.449,117.600 295.200 C 117.600 294.980,117.878 294.800,118.218 294.800 C 118.558 294.800,119.278 294.358,119.818 293.818 C 121.985 291.652,120.594 286.400,117.853 286.400 C 117.274 286.400,116.800 286.220,116.800 286.000 C 116.800 285.771,115.600 285.600,114.000 285.600 L 111.200 285.600 111.200 279.800 L 111.200 274.000 114.711 274.000 C 118.335 274.000,120.000 273.426,120.000 272.177 C 120.000 271.860,120.180 271.600,120.400 271.600 C 121.626 271.600,120.797 267.105,119.322 265.754 L 117.844 264.400 111.400 264.400 L 104.956 264.400 103.478 265.754 M323.200 280.200 L 323.200 287.200 315.400 287.200 L 307.600 287.200 307.600 280.200 L 307.600 273.200 315.400 273.200 L 323.200 273.200 323.200 280.200 M83.200 279.800 L 83.200 285.600 77.400 285.600 L 71.600 285.600 71.600 279.800 L 71.600 274.000 77.400 274.000 L 83.200 274.000 83.200 279.800 " stroke="none" fill="#040404" fill-rule="evenodd"></path><path id="path1" d="" stroke="none" fill="#080404" fill-rule="evenodd"></path><path id="path2" d="" stroke="none" fill="#080404" fill-rule="evenodd"></path><path id="path3" d="" stroke="none" fill="#080404" fill-rule="evenodd"></path><path id="path4" d="" stroke="none" fill="#080404" fill-rule="evenodd"></path></g></svg>